<svg id="Layer_1" data-name="Layer 1" xmlns="http://www.w3.org/2000/svg" xmlns:xlink="http://www.w3.org/1999/xlink" viewBox="0 0 451.19 451.9"><defs><style>.cls-1,.cls-14,.cls-15,.cls-16,.cls-22,.cls-25,.cls-26,.cls-3{fill:none;}.cls-2{clip-path:url(#clip-path);}.cls-3{stroke:#eacc1b;stroke-width:12.28px;}.cls-10,.cls-11,.cls-13,.cls-14,.cls-15,.cls-16,.cls-17,.cls-18,.cls-19,.cls-20,.cls-21,.cls-22,.cls-25,.cls-26,.cls-3{stroke-miterlimit:10;}.cls-4{fill:#0f004e;}.cls-5{fill:#ffd400;}.cls-19,.cls-6{fill:#fff;}.cls-7{fill:#f3c108;}.cls-10,.cls-11,.cls-8{fill:#82562e;}.cls-20,.cls-9{fill:#b3b3b3;}.cls-10,.cls-11{stroke:#956338;}.cls-10{stroke-width:0.67px;}.cls-11,.cls-13,.cls-15,.cls-17,.cls-18,.cls-19,.cls-20,.cls-21,.cls-25{stroke-width:1.58px;}.cls-12{fill:#fd0;}.cls-13{fill:#4da8d4;}.cls-13,.cls-15,.cls-16,.cls-17,.cls-18,.cls-19,.cls-20,.cls-21{stroke:#000;}.cls-14,.cls-26{stroke:#fff;}.cls-14{stroke-width:0.91px;}.cls-16{stroke-width:1.98px;}.cls-18{fill:#079c42;}.cls-21{fill:#999;}.cls-22{stroke:#ccc;stroke-width:2.01px;}.cls-23{fill:#2e3192;}.cls-24{fill:#ce181e;}.cls-25{stroke:#e9cd0c;}.cls-26{stroke-width:4.74px;}.cls-27{fill:#eacc1b;}</style><clipPath id="clip-path" transform="translate(-80.58 -180.67)"><path class="cls-1" d="M306.21,406.62"/></clipPath></defs><title>dos_seal3</title><g class="cls-2"><ellipse class="cls-1" cx="225.63" cy="225.95" rx="225.55" ry="225.95"/></g><circle class="cls-3" cx="225.5" cy="226.21" r="219.36"/><path class="cls-3" d="M306.08,406.89" transform="translate(-80.58 -180.67)"/><path class="cls-4" d="M305.92,624.53c120,0,217.36-97.32,217.36-217.36S426,189.81,305.92,189.81,88.56,287.13,88.56,407.17,185.88,624.53,305.92,624.53Z" transform="translate(-80.58 -180.67)"/><path class="cls-4" d="M305.92,407.17" transform="translate(-80.58 -180.67)"/><polygon class="cls-5" points="32.79 189 35.05 195.79 42.25 195.63 37.26 199.97 39.71 207.63 33.48 203.56 26.9 207.75 29.36 200.49 23.64 196.06 30.66 195.9 32.79 189"/><polygon class="cls-5" points="417.81 189 420.07 195.79 427.26 195.63 422.27 199.97 424.73 207.63 418.49 203.56 411.92 207.75 414.38 200.49 408.65 196.06 415.68 195.9 417.81 189"/><circle class="cls-6" cx="228.66" cy="226.94" r="171.18"/><path class="cls-6" d="M303,373.66c.41.63.41,2.49.41,4.16a49.59,49.59,0,0,1,4.16,2.81c.86.86-.21,4.37-1,5s-3.33,5.72-3.95,6.55a4,4,0,0,0,.83,4.58c1.46,1.25,6.86-3.62,7.9-4.66-.42,2.5,0,6.83,1.46,7.15,1.87.42,3.92-8,4.34-9.26-.42,1.66,2.57,10.38,4.81,9.26,2.5-1.25,2.62-8.22,2.83-9.26,0,1,3.82,9.67,6.11,7.39s1-5.19.62-6.24c.83-1,.83-4.36.83-5s-1-2.08-.21-3.74,1-7.16.83-8.73-.83-2.18-.62-3.11c0-.05,3.22-1.37,1.25-2.5-5.3-3-10.81-4.57-17.25-5.82s-10.51.11-11.43,1c-3.22-.1-5-.21-5.51,1.25.26-.71-15.07,1.77-9.45,11.43.83-2.08,2.28-4.16,8.31-3.33s8.94,3.12,10.18,3.53c-1.46-1.45-.62-3.12-4.36-4.78" transform="translate(-80.58 -180.67)"/><path class="cls-7" d="M289.15,375.55c-.51,1.16-.48-4.55-.48-4.55.23-1.38.58-2.42,2.53-4a20,20,0,0,1,8.29-3.34c.35-1,2.42-.92,3.68-.92.88,0,1.61.11,2,.92s.46,4.26,2.19,6.91a15.66,15.66,0,0,1,2,4.83c.35.81-.69,3.8-1.5,4.95-1.5-2-8-4.44-10.72-5.36a12.61,12.61,0,0,0-5.93-.2S289.94,373.77,289.15,375.55Z" transform="translate(-80.58 -180.67)"/><path class="cls-6" d="M270.44,277.85c-3-7.48,2.82-14.25,11.17-12-1.51-6.08,6.18-13.72,14.09-7.74,1.19-6.7,10.34-10.5,16-2.81,3.43-6.65,15-6.29,15.9,2.86,3-4,15.8-4,14.45,7.79,3.84-3.12,15.9,1,11.23,11.75,8.31-.94,12.67,8.63,6.8,14.92,5.41.93,10.75,10.86,1.35,16.42,7.84,7,2.23,15.22-3.79,16,4.37,8.53-2.08,14.55-9.36,13.72,1,8.21-5.61,13.62-13.15,9.77-.88,8.21-9.46,10.81-15.33,5.3-4.05,7.8-13.15,6.81-16.27-.47a8.72,8.72,0,0,1-15.43-5.25c-6.34,3.17-14.6-.89-12.63-10.34-7.74,1.14-13-6.23-8.88-13.41-6.29-1-10.86-9.46-3.64-15.64-6.08-3-7.33-12.42,1-16.16C258.85,286.48,262.33,278.17,270.44,277.85Z" transform="translate(-80.58 -180.67)"/><path class="cls-6" d="M287.38,519.05c-1.87,1.26-17.57,14.46-14.27,8.21-.32.6,9.17-19.47,22.43-29l34.87.42c14.54,10.39,21.5,27.46,21.82,28.06,3.32,6.24-11.85-6.44-13.72-7.69" transform="translate(-80.58 -180.67)"/><path class="cls-6" d="M327.09,503.26c12.73,12.55,17.47,32.34,17.69,33,2.31,6.68-10.69-8.23-12.34-9.76" transform="translate(-80.58 -180.67)"/><path class="cls-6" d="M323.76,506.38c9.53,13,11.89,38.68,11.84,37.21.21,7.27-9.37-11.35-10.39-12.68" transform="translate(-80.58 -180.67)"/><path class="cls-6" d="M317.73,506.58c10,18.87,7.87,41.35,7.69,42.82-.85,7.23-7.1-10.57-7.92-12" transform="translate(-80.58 -180.67)"/><path class="cls-6" d="M298.17,503.68c-12.69,12.61-17.35,32.41-17.57,33-2.28,6.69,10.66-8.27,12.3-9.8" transform="translate(-80.58 -180.67)"/><path class="cls-6" d="M301.51,506.79C292,519.85,289.77,545.51,289.8,544c-.17,7.28,9.45-11.39,10.47-12.72" transform="translate(-80.58 -180.67)"/><path class="cls-6" d="M307.54,507c-9.91,18.9-7.71,41.38-7.53,42.85.87,7.23,7.06-10.6,7.88-12.07" transform="translate(-80.58 -180.67)"/><path class="cls-6" d="M310,510.5c-.82,2.91-2.81,25.37-2.17,29.94s2.26,16.14,4.76,16.76c2.5-.62,4.26-12.57,4.89-17.15s-1.46-27-2.29-29.93" transform="translate(-80.58 -180.67)"/><path class="cls-6" d="M345.95,415l.1,71.19c0,3-1.14,5-4.78,5-2.5.21-25.36,0-25.36,0-3,0-2.08,1.35-3.32,2.81-.83-1.46-.42-2.81-3.33-2.81H283.9c-3.64.12-5-1.5-5.66-4.21,0-2.39-.05-72-.05-72Z" transform="translate(-80.58 -180.67)"/><path class="cls-7" d="M243.67,493.06l-12.89-.69c3.68-6.44.92-7.14-.23-8.52s-5.52-2.76-9.21,3.45c-3.91,0-5.52,1.15-8.06,4.6s-3.68,2.76-3.68,6.21,2.76,3.68,3.91,3.22c-.92,3-.23,6.21,5.06,6-1.15,3.45,2.3,7.14,5.76,5.52a18.35,18.35,0,0,0,7.37-7.13,8.67,8.67,0,0,0,.69-4.14v-1.38a53.47,53.47,0,0,0,6.22.69c2.76.23,6.44.23,7.59.23-.46-1.38,3.22-6.9,6-6.9C247.82,494.9,243.67,494.43,243.67,493.06Z" transform="translate(-80.58 -180.67)"/><path class="cls-7" d="M383.15,492.19c-.12-.23,10.35-.11,11.4-.23-2.88-3.8-1.84-7.94,1-9.32a6.77,6.77,0,0,1,6.45.11c1.15.69,2.19,3.34,2.3,3.92,1.73-.46,3.34-1,5.41.92s6.33,6.56,6.79,7.13,1,3.56-.46,4.83a4,4,0,0,1-3.45,1c.69,2.19,1.27,3.91-.11,5a6.62,6.62,0,0,1-4.84.92c1.27,3.11-1.61,7.37-5.75,5.64s-4.26-3.57-5.18-4.72A40.48,40.48,0,0,1,394,503.7a3.17,3.17,0,0,1,.23-2.88,7.65,7.65,0,0,0-.35-1.15s-4.6.46-6.1.46-6.56.35-7.37.23c.58-1.38-1-3-2.19-3.91a45.72,45.72,0,0,0-4.37-2.88,37.62,37.62,0,0,0,7.14.12C382.11,493.57,383.58,493.07,383.15,492.19Z" transform="translate(-80.58 -180.67)"/><path class="cls-8" d="M327.94,490.55c2.3,2.53,4.83,5.75,4.14,7.13s-4.83,1.15-6,0c1.84,3.22,2.76,4.37,1.15,6s-2.95,1-4.32-.19c1.38,3.22,1.18,4.72-.28,6.18-.92.92-5.3-2.53-6.91-7.6.23,4.14.65,9.07-2.3,10.35-1.84.8-4.32.14-5-1.57-.53-1.32.53-4.48.53-4.48-2.3,3.45-3.81,4-5.65,2.36s-.69-3.91.22-5.29a18.39,18.39,0,0,0,1.61-3.22c-3.45,3.68-4.14,4.14-5.52,3.45s-1.15-3.22-.23-4.83a23.29,23.29,0,0,1,1.84-2.76c-2.53,2.3-6,2.76-6.45,1.61a3.17,3.17,0,0,1,.23-3.45,34.37,34.37,0,0,1,3.22-3.68h11.51s2.77-.23,2.77,3c1.15-1.61.92-2.76,3.22-2.76S327.94,490.55,327.94,490.55Z" transform="translate(-80.58 -180.67)"/><path class="cls-9" d="M296.15,498.86c-2.7,2.16-4.14,3.46-6.44,5.53s-6.21,5.06-3.91,4.37a23.43,23.43,0,0,1,6.44-.7,2,2,0,0,1,1.84.92s-2.3,3.46-3,4.37A16.86,16.86,0,0,1,289.7,515a16,16,0,0,1,2.53-1.61,38.25,38.25,0,0,1,4.6-1.61l2.53-.92c-1.84,2.53-1.84,4.14-2.53,5.52s-1.38,3.22-1.38,3.22c2.76-1.61,2.07-2.31,3.91-2.76s3.91-.92,3.91-.92h1.15a46.47,46.47,0,0,0-2.3,6.45,9.49,9.49,0,0,1-.46,2.07c2.07-1.84,3-3.46,4.14-4.14a27.67,27.67,0,0,1,2.76-1.38h.92a42.51,42.51,0,0,0-.69,5.52c1.15,2.53,6.45,2.3,8.05.23a28.18,28.18,0,0,0-.23-5.06c2.3,1.61,6.68,1.84,7.37,4.14-.46-1.84-2.3-7.59-2.3-7.59,3.46,1.14,4.14,1.61,5.06,2.76s3.45,1.15,3.45,1.15c-.69-2.53-2.3-6.67-2.3-6.67,3.22,1.38,4.37,1.38,6,2.53a2.27,2.27,0,0,0,2.76.23,19,19,0,0,0-2.76-4.84c-2.07-2.76-1.61-1.61-1.61-1.61,4.14.46,4.37.23,5.75.46a23.47,23.47,0,0,0,3.22.23s.69.92-.69-1.39-9.21-9-10.13-9.89c-2.53,0-3.68-.23-4.37-.69,2.07,3.45,2.53,4.14,1.15,5.52s-4.14-.69-4.14-.69c1.38,3.22,1.15,6-.46,6.9s-6.44-5.06-6.67-6.21c.46,3.68-.23,8.29-2.53,9s-3-.92-3.45-3a20.26,20.26,0,0,1-.46-3.92c-2.76,3.45-3.68,4.38-6,3.68s-1.61-3.46-1.38-4.14,2.07-4.14,2.07-4.14c-3.22,3.45-3.91,3.45-5.29,2.3a2.44,2.44,0,0,1-.46-3.68,9.47,9.47,0,0,0,1.61-2.76A13.67,13.67,0,0,0,296.15,498.86Z" transform="translate(-80.58 -180.67)"/><path class="cls-8" d="M346.32,466.42a14.64,14.64,0,0,1,9.89,2.3c.69.46,3.22,2.3,3.22,2.3s1.38-.69,4.6,2.54a53.77,53.77,0,0,1,5.07,5.75c3.91,2.31,5.06,3.69,6,5.07a35,35,0,0,1,1.84,3.22,17.83,17.83,0,0,1,6.21,4.6c.46.69-1.38,1.61-3.22,1.61s-6-.24-6-.24c3,1.62,5.29,3.23,6,5.53s-.69,1.84-3.45,2.76a13.15,13.15,0,0,1-6.44.69,10.2,10.2,0,0,1-3.45-1.15s-2.3.23-4.38.23A12.52,12.52,0,0,1,356,500c-3.91.23-6.9-1.38-9.66-2.53-2.3-1-6.67-3.22-7.59-4.14s-3-2.53-3-2.53c5.52.23,7.82.46,9.44-1.61s.92-9.21,1.15-13.35S346.32,466.42,346.32,466.42Z" transform="translate(-80.58 -180.67)"/><path class="cls-10" d="M288.78,490.81c-5.52.23-7.83.46-9.44-1.61s-.92-9.21-1.15-13.35,0-8.52,0-8.52c-4.6-.46-9,1.38-10.36,3.45s-.69.69-.69.69-2.3,0-5.52,3.22a27.6,27.6,0,0,0-4.37,5.29,21.16,21.16,0,0,0-6.91,6,6,6,0,0,0-.92,3c-3.45,1.61-4.83,2.76-5.29,3.45s0,1.84,1.84,1.84h6.21c-2.88,2-4.14,2.82-5.58,4.66-.69.88-1.32,2,1.44,2.93s8.52,2.3,9.9,1.15a13.51,13.51,0,0,1,2.3-1.61s0,.92,2.07.92,6.67-.46,8.52-2.07a15.86,15.86,0,0,0,9.44-2.53" transform="translate(-80.58 -180.67)"/><path class="cls-11" d="M301.86,392.34c-2.53,1.61-4.79,3.42-5.25,5.49s-.92,2.31-.92,2.31-.46.46-1.84,1.61a20.54,20.54,0,0,0-3.22,3.45,4,4,0,0,0-.46,1.84s-.23.23-1.61,2.07-2.53,2.77-2.3,5.53L341,414.4s.46,0,.46-1.84-3.68-9.21-4.37-10.58c-1.38-.23-1.61-.23-2.53-1.84a9.86,9.86,0,0,1-1.38-3.92,5.58,5.58,0,0,0-1-2.07c-.57,3.68-2,3.45-3.1,3.45s-3.68-2.76-4.14-3.91c-.69,3.45-1.15,5.06-2.53,5.52s-3-.23-3.91-2.07a28.23,28.23,0,0,1-1.38-3.22c-.69,2.53-1.38,3.91-2.53,4.83s-3.91-.23-4.37-1.61a8.67,8.67,0,0,1-.23-3.22c-2.76,2.3-5.06,3.68-6.44,3a2.39,2.39,0,0,1-1.39-2.46A16.47,16.47,0,0,0,301.86,392.34Z" transform="translate(-80.58 -180.67)"/><path class="cls-8" d="M278.43,418.54c-2.53,1.15-8.75,2.76-13.58-2.07s-8.29-12-8.29-17,0-6.21,3.22-9.89,4.95-4.39,5.53-8.06c.69-4.37-4.14-9.9-8.52-14.5-6-6.27-12.2-11.51-20.26-18.41-5-4.29-14-9.9-21.86-13.81-5.06-2.53-11-5.26-16.57-8.06-6-3-14.27-4.83-16.34-4.83s-1.61,1.84.69,4.37,10.82,7.36,12.89,8.52,8.06,4.83,8.06,4.83c-4.37-.46-8.75-1.38-9.44.46s1.61,6.21,3.45,7.6,8.28,5.52,9.67,6.22c-3.45.92-7.36,0-7.13,2.53a8,8,0,0,0,3.91,5.75c1.84,1.15,8.52,4.6,8.52,4.6-3.22.23-5.29,1.15-5.75,2.76s2.3,3.68,5.52,5.06c-3.68,1.15-6.45,2.53-6.21,4.83s3.68,3.45,6,4.14c-3,1.15-6.45,3.45-6,5.52s2.53,2.3,4.83,3.22c-2.76,1.61-5.29,3.68-4.6,5.52s3.91,3,6.9,3.22c-3.45,1.84-5.29,3.91-4.83,6s4.83,2.76,6.68,2.76c-1.84,2.53-3.91,5.53-3,6.67s4.14,2.53,6,2.07c-1.84,2.76-3.22,5.52-1.84,6.9s5.22,1,6.9,0c1.15-.69-1.38,1.84-1.38,1.84s-2.3,2.3-.23,6.22c.63,1.19,4.83,1.15,6.21.46-1.61,3.22-1.38,5.75-.46,6.67s5.29,0,6.45-.69c-1.38,3.91-1.84,6-.23,6.9s5.76-.23,7.37-1.84c-1.15,3.91-1.38,5.52-.23,6.44s6.21,1.38,8.29-.46c-1.15,3-.46,4.83.92,5.75s4.37.92,6.67-1.84c.23,4.6,0,5.52,2.07,6.44s5.29-1.61,6.91-3c.69,4.37,1.35,4.91,3,5.52,1.84.69,5.29-2.3,6.21-4.14.69,3.22,2.76,5.06,3.45,5.3s.23-1.16.23-1.16Z" transform="translate(-80.58 -180.67)"/><path class="cls-8" d="M345.86,417.62c2.53,1.15,8.75,2.76,13.58-2.07S367,402.89,367,397.82s-.22-5.75-3.45-9.44-4.83-4.37-5.29-8.05,1.38-7.37,7.83-13.12,12.44-12.77,21.64-19.56c5.29-3.91,13.35-10.59,21.17-14.5l16.57-8.29A43.76,43.76,0,0,1,441.38,321c2.08,0,3.45,0,1.15,2.53S431,332.69,429,333.84s-5.76,3.22-5.76,3.22c4.37-.46,6.45.23,7.13,2.07s-1.61,6.22-3.45,7.6-9.44,4.83-10.82,5.52c3.46.92,7.59.69,7.37,3.22s-2.07,4.37-3.91,5.52-9,4.37-9,4.37c3.22.23,5.07.69,5.53,2.3s-1.61,4.14-4.83,5.52c3.68,1.15,6.67,1.84,6.44,4.14s-3,4.61-5.3,5.29c3,1.15,5.53,3.45,5.07,5.53s-1.61,2.3-3.91,3.22c2.76,1.61,4.6,3.45,3.91,5.29s-4.6,3-6.21,3.46c3.45,1.84,5.29,3.91,4.83,6s-5.53,2.07-7.37,2.07c1.84,2.53,4.61,6.21,3.68,7.36s-4.14,2.53-6,2.07c1.84,2.76,3.22,5.52,1.84,6.9s-5.06.69-6.91,0-1.38-.23-1.38-.23,5.07,4.38,3,8.29c-.63,1.19-4.83,1.15-6.22.46,1.61,3.22,1.38,5.75.46,6.67s-5.29,0-6.44-.69c1.38,3.91,1.84,6,.23,6.9s-5.75-.23-7.37-1.84c1.15,3.91,1.38,5.52.23,6.44s-6.21,1.38-8.29-.46c1.15,3,.46,4.83-.92,5.75s-4.37.92-6.67-1.84c-.23,4.61,0,5.53-2.08,6.45s-5.29-1.61-6.9-3c-.69,4.37-.6,5.59-2.3,6-3,.69-6-2.76-6.91-4.6-.69,3.22-1.61,5.06-2.3,5.29s-1.38-1.15-1.38-1.15Z" transform="translate(-80.58 -180.67)"/><path class="cls-12" d="M332.17,382.4a4,4,0,0,0,0,3.34c.58,1.72-.49,4.48-.69,5.06s.58,1.27.58,2.3.11,1,.11,1a3.63,3.63,0,0,1,.7,1c.23.58,1.15,3.34,1.49,4s.46,2.88,3.68,3,6.79-.58,7.71-1.72,1.27-5.07,1.27-6.33,2.53-4.6,3.68-5.53,4.26-3.22,4.72-4a2.8,2.8,0,0,0-.69-3c-.81-.92-1.73-3.11-.23-6.45s.81-5.64-.23-6.79-2.76-.57-3.92.11-2.65-.69-3.22-1.38-1.26-2.18,1-4.26,9.71-8.32,14.5-12a66.3,66.3,0,0,1,18.75-9.55c3.57-1,13.35-3.8,15.19-4.26a9.59,9.59,0,0,0,2.88-1.15c.46-.23.77-.53-.12-2.3-.46-.92.12-3.11.12-4.72v-1.5s2-1.38,3.22-2.19,5.29-4,6-5.64,2.07-3.45,0-6.33-2.53-3.22-2.53-6.21-2.3-7.59-3.8-9-5.52.23-6.22,1.5-2.07,2.65-.34,4.49,3.22,6.1,2.53,7.59-.81.92-.81.92a33.06,33.06,0,0,1-5.29,2.53c-2,.58-7.83,2-9.21,4.83s-.69,2.65-.23,3.8a28.3,28.3,0,0,1,1.39,4.14v.92s-3.22.92-4.72,1.38a113.26,113.26,0,0,0-12.2,4.95c-2.42,1.38-12.89,8.29-12.89,8.29-2.65,2-9.32,7.48-11.85,10s-3.11,3.57-5.07,5.53-4.14,4-3.11,4.83,3.57,2.19,4.49,3.1,1.61,2.65,2.76,4,3,3.45,4.49,2.07.69-.81.69-.81a3.27,3.27,0,0,1,2,.46,22.9,22.9,0,0,1,2.3,1.84,2.17,2.17,0,0,1,.57.92s-3.45,3.11-4.83,4.49-4.95,6.45-5.18,8.75-1.15,5.18-1.15,6.56.23,3.46.23,3.46-1.61-3.68-2.19-4.83-4.37-8.4-4.95-9.21S332.17,382.4,332.17,382.4Z" transform="translate(-80.58 -180.67)"/><path class="cls-12" d="M302.82,373.43s-1.38-.23-3.22-.46a26.58,26.58,0,0,1-2.76-.46,22.14,22.14,0,0,1,0,8.75c-.46,1.61-3.22,6.67-3.22,9.2s.46,6.68,2.3,8.29a20.53,20.53,0,0,1,1.85-3,15.19,15.19,0,0,1,2.07-2.07,21.49,21.49,0,0,1,1.38-8.29c.92-2.3,2.53-6,2.53-7.36A26,26,0,0,0,302.82,373.43Z" transform="translate(-80.58 -180.67)"/><path class="cls-12" d="M290.34,375.94s-.14,6-.37,7.35-3.34,3.45-4.14,3.91-2.42.58-3.57,1a7.46,7.46,0,0,1-4.49.23,5.16,5.16,0,0,1-3-3.91c-.11-1.84-.23-4.6-2.19-5.75a17,17,0,0,1-5.06-4.83c-.57-1-1.73-3.45,1.15-4.38s4-1.73,4.49-2.3,2-2.07,2-2.07c-4.83-7.82-12.19-11.8-19.79-16.8-9.44-6.21-26-9.09-28.65-9.67s-3.34-1.84-3.91-4a28,28,0,0,1-.23-6.67c-2.18-.46-7.14-4.49-9-6.9s-.8-5.41-.11-6.56,3-3.57,3.34-5,1.15-7,2.07-9.21,1-2.19,3.11-3,6.1.69,6.1,4.26c0,2.56-3.11,7.59-4.72,9.9a26.56,26.56,0,0,0,3.45,2c1.38.58,4.14,1.54,10,4a6.17,6.17,0,0,1,3.57,7,36.05,36.05,0,0,0-1.85,5.75c9.44,2.19,24.62,8.19,32.57,15.42,6.45,5.87,10.13,8.29,14.27,14.27,2.51,3.62,1.72,6-.23,6.22a7.72,7.72,0,0,0-4.26,2.07,8.66,8.66,0,0,0-2.19,3.22c-.23,1.38-.11,1.38-1.84,2a19.82,19.82,0,0,1,3.45,3.22c1.5,1.84.81,3,1.15,5.18s1,2.77,2.65,2.07c.35-1,.23-3.45.11-6.79s2.24-4.79,4.55-5.6C288.76,371.6,288.76,375.35,290.34,375.94Z" transform="translate(-80.58 -180.67)"/><path class="cls-13" d="M277.82,282.87c2.39,6.23-1,10.86-5.25,12.26a8.83,8.83,0,0,1-1,13.25c4.78,3.11,6,8.16,3.22,12.78,6.6,1.25,8.42,7,7.12,11.43,4.73-1,10.51,2.84,10.3,8.45,4-2.78,10.85-1,12.72,4.65,3.85-4.11,9.41-4.52,13.46-.1,2.08-5,8.88-7.07,12.63-4.26,0-5.41,6-10,11.33-7.8-2.39-6.44,3.22-11.33,7.27-11.54a8.72,8.72,0,0,1,3.85-13.3c-5-2.6-5.61-9.87-1.25-13.72a8.4,8.4,0,0,1-5.51-12.47c-3.95,1-10.81-3.54-9.46-10.08a8.83,8.83,0,0,1-12.06-6.34c-4.05,3.85-11.43,2.19-13.25-2-1.87,3.43-7.43,6.7-13.46,2.34A8.78,8.78,0,0,1,286.81,273c.37,6.39-4.47,10.24-9,9.88" transform="translate(-80.58 -180.67)"/><line class="cls-14" x1="234.71" y1="153.29" x2="236.79" y2="161.18"/><line class="cls-14" x1="226.71" y1="153.49" x2="225.36" y2="161.6"/><path class="cls-15" d="M303,373.66c.42.63.42,2.49.42,4.16a49.36,49.36,0,0,1,4.16,2.81c.86.86-.21,4.37-1,5s-3.33,5.72-4,6.55a4,4,0,0,0,.83,4.58c1.45,1.25,6.86-3.62,7.9-4.66-.42,2.5,0,6.83,1.46,7.15,1.87.42,3.92-8,4.34-9.26-.42,1.66,2.57,10.38,4.81,9.26,2.5-1.25,2.62-8.22,2.83-9.26,0,1,3.82,9.67,6.11,7.39s1-5.19.62-6.24c.83-1,.83-4.36.83-5s-1-2.08-.21-3.74,1-7.16.83-8.73-.83-2.18-.62-3.11c0-.05,3.22-1.37,1.25-2.5-5.3-3-10.81-4.57-17.25-5.82s-10.51.11-11.43,1c-3.22-.1-5-.21-5.51,1.25.25-.71-15.07,1.77-9.45,11.43.83-2.08,2.28-4.16,8.31-3.33s8.94,3.12,10.18,3.53c-1.46-1.45-.62-3.12-4.36-4.78" transform="translate(-80.58 -180.67)"/><path class="cls-15" d="M302.19,369.92l-1.45-1.24" transform="translate(-80.58 -180.67)"/><path class="cls-16" d="M308,367.84c.86-.61,2.71.21,4.58,0-.85.1,4.66-.78,5.82-.21a3.69,3.69,0,0,1,2.29,2.7" transform="translate(-80.58 -180.67)"/><path d="M309.68,368.15c1.06,0,4.06-.42,5-.42,1,1,2.29,1.87.42,2.7S309.05,368.15,309.68,368.15Z" transform="translate(-80.58 -180.67)"/><path class="cls-15" d="M404,300.49c1.25,2.91,2.08,4.57,2.08,7.07s1.25,4.16,2.91,6.24.42,4.57-1.25,7.06-8.32,6.65-8.32,6.65" transform="translate(-80.58 -180.67)"/><path class="cls-15" d="M399.06,323.77c.83,1.66.41,3.33.41,5.4s-.83,3.74.42,5.4-5,2.83-7.9,3.74c-4,1.27-16.08,4.79-22.65,8.87A147.27,147.27,0,0,0,345.22,366c-1.17,1.16-3.66,4.21-1.46,6.86,2.08,2.49,5-4.41,7.9-5,3.12-.62,5,3.33,2.08,5.82s-11.23,8.32-12.47,16.21-1.25,5.41-.42,9.15-5.4,4.57-6.65,0-2.08-5-2.08-5" transform="translate(-80.58 -180.67)"/><path class="cls-15" d="M382.85,323.36c.66,2.65,2.11,3.89,1.25,5.61" transform="translate(-80.58 -180.67)"/><path class="cls-15" d="M347.3,364.1c-1,.79-.19,4.92,3.12,4.36" transform="translate(-80.58 -180.67)"/><path class="cls-15" d="M346.67,372c2.77,0,5,3.32,5,3.32" transform="translate(-80.58 -180.67)"/><path class="cls-15" d="M355.2,370.54c.83,3.32-3.12,7.27-.63,11s-.41,3.32-2.08,5.4-6.24,4.57-5.82,10-4.57,5-8.32,5.4" transform="translate(-80.58 -180.67)"/><path class="cls-15" d="M340.85,399c-1.66-4.16-7.48-15.8-8.73-16.63" transform="translate(-80.58 -180.67)"/><path class="cls-15" d="M395.73,303.81c1.25,1.67,2.91,5.4,2.49,6.65" transform="translate(-80.58 -180.67)"/><path class="cls-15" d="M402,308c-.42-1.66-1.25-5.4-1.25-5.4-.88,2.64-7.49,2.49-5.41-1.66s7.48-4.58,8.73-.42-4.16,10.81-7.9,12.89-10.81,3.33-12.47,5.41c-1.16,1.45-4.25,5.9,4.57,4.57,8.31-1.24,10.81-3.33,10.81.42s-6.65,2.91-11.64,4.16c-4.16,1-13.74,3.54-22.68,8.91-9.41,5.65-21.39,15.21-24.29,18.95s-8.71,6.87-5,8.73c5.82,2.91,5.4,7.48,8.31,8.31" transform="translate(-80.58 -180.67)"/><path class="cls-15" d="M302.61,392.16c-1.46.42-6.44,4.58-6.44,7.27s.21,3.53.83,4.16,7.13-3.81,7.76-6.51c-.21,2.08-.07,7.14,2.22,9s5.62-3.54,5.82-6c.62,2.08.62,6,4.37,7.69s4.3-5,4.71-6.46a6.7,6.7,0,0,0,5.26,5c2.08.21,3.3-4.6,3.3-6.06,1,2.7,3.36,3.77,5,4.81s2.08-2.29,1.46-3.33" transform="translate(-80.58 -180.67)"/><path class="cls-15" d="M310.09,414.4c.63,0,3.86-.67,2.29-.83-3.95-.42-4.36-4.79-4.78-6.66-.42.83-4.57,6.66-7.07,5.61s-3.33-6.65-3.53-8.94c-1.87,1.46-5.61,10-6.86,5s6.94-8.35,6-9.15" transform="translate(-80.58 -180.67)"/><path class="cls-15" d="M312.38,413.57c2.91.41,4.16-4,5-5.2,1,2.49,3.12,5.4,5.19,5.82s4.78-5.61,4.78-6.86c1.45,3.12,3.94,6.24,6.23,6.24s2.08-7.07,2.49-8.32" transform="translate(-80.58 -180.67)"/><path class="cls-15" d="M337.11,403c1.87,2.29,5.61,10,4.57,11.23s-5.19-2.28-5.82-3.74" transform="translate(-80.58 -180.67)"/><path class="cls-15" d="M289.93,406.92c-1.25,1.46-3.54,5-3.74,6.44" transform="translate(-80.58 -180.67)"/><path class="cls-15" d="M291.59,409.83c0,1.25-.83,3.33-.21,4.37" transform="translate(-80.58 -180.67)"/><path class="cls-15" d="M299.91,412.11c-.83,1.25-1,1.87-2.08,2.08" transform="translate(-80.58 -180.67)"/><path class="cls-15" d="M301.57,412.32c.62,1.25.62,1.87,1.25,2.29" transform="translate(-80.58 -180.67)"/><path class="cls-15" d="M303.44,377.81c.21,2.08-1.45,6.86-2.49,8.73a12.77,12.77,0,0,0-1,6.65" transform="translate(-80.58 -180.67)"/><path class="cls-15" d="M295.75,398.6c-4.57-5.61-.63-13.51.62-16.42.79-1.84.85-8.8.42-9.56" transform="translate(-80.58 -180.67)"/><path class="cls-15" d="M297.41,375.11c-1.25-.21-4.26-.94-6.14-.52" transform="translate(-80.58 -180.67)"/><path class="cls-15" d="M288.58,371.58a5.17,5.17,0,0,0-4.05,5.62c.21,3.74.26,9.89-2.29,10.81-4.27,1.54-7.14-1.42-7.27-4.78-.21-5-3.53-5-5.19-6.65.14.14-6.12-6.4,0-7.28,1.45-.21,3.74,1.87,3.95,2.7s4.37,2.91,5.19-.21,3.74-5.41,5.82-5.61,4.16-2.7.21-7.48c-6.54-7.92-18.71-18.29-29.1-22.66-9.35-3.93-23.93-8.11-31-8.94-3.53-.42-.47-4,1-3.74,2.29,0,8.94,1.25,10.61,1s6.23-3.12,1.87-6-12.89-5.2-14.76-6.86-7.69-4.36-4.78-11,9.56-2.29,9.36.42-2.91,5.61-5.4,2.7c-1.29,2.07-1.5,3.89-2.29,5" transform="translate(-80.58 -180.67)"/><path class="cls-15" d="M228,301.94c-.42,2.7-3.74,9.15-4.37,9.56" transform="translate(-80.58 -180.67)"/><path class="cls-15" d="M218.63,301.53A30,30,0,0,0,217,309c.09-.57-4.63,7.46-3.54,5.82-1.25,1.87-.5,4.39.42,6.24-1.48-3,2.91,5,9.35,6.86" transform="translate(-80.58 -180.67)"/><path class="cls-15" d="M223.41,326.06c-1,2.7-.21,5.2-.42,7.27s.85,5,4.88,5.51c4.47.52,18.29,4.05,25.67,8.21,5.43,3.06,14.1,8.87,17,12.27,2.7,3.11,6.86,7.69,7.28,10s-.41,3.53-1.45,3.95" transform="translate(-80.58 -180.67)"/><path class="cls-15" d="M274.75,366c-1.21.6-1.26,1.71-2.7,2.28-1,.42-2.91.63-3.74,1.66" transform="translate(-80.58 -180.67)"/><path class="cls-15" d="M240.25,320.24c0,1.87.78,4.11-.26,5.78a10,10,0,0,0-1.2,4" transform="translate(-80.58 -180.67)"/><path class="cls-15" d="M277,373.24c1.46,1,4.37,3.74,4.37,5a27,27,0,0,0,.2,4.16c.21,1,1.25,2.29,2.7,1.46" transform="translate(-80.58 -180.67)"/><path class="cls-15" d="M291.07,374.28c-.24,1.9-.69,8.6-1.37,10a16,16,0,0,1-7.47,3.76" transform="translate(-80.58 -180.67)"/><path class="cls-15" d="M308.43,490.89" transform="translate(-80.58 -180.67)"/><path class="cls-15" d="M318.41,490.89" transform="translate(-80.58 -180.67)"/><path class="cls-15" d="M299.49,491.09c.46-.57.23.1.23.1" transform="translate(-80.58 -180.67)"/><path class="cls-15" d="M302.71,494.26" transform="translate(-80.58 -180.67)"/><path class="cls-15" d="M309.73,491.5c0,2.49-1.94,9.23,2.86,8.75,3.12-.31,3.18-4.28,2.66-8.75" transform="translate(-80.58 -180.67)"/><path class="cls-15" d="M357.49,439.35c.81,1.33.8,4.51-.51,4.85-1.82.47-4.54-1.67-6.79-4.49a22.49,22.49,0,0,1-3.93-7.42" transform="translate(-80.58 -180.67)"/><path class="cls-15" d="M351.25,441c.16.35,2.06,9.56-4.78,4.36" transform="translate(-80.58 -180.67)"/><path class="cls-15" d="M345.84,417.73c2.08,2.07,12.05,2.07,16.63-5.82s6.24-17,3.33-20.79-11.64-9.56-5.82-17,24.23-24.61,34.09-31.59,27.2-17.55,39.91-20.37c3.74-.83,10.7-2.35,9.35,0-3.95,6.86-20.16,14.13-29.93,21-2.18,1.53-29.51,16.21-32.22,18.92.42,2.91-3.74,4.57-7.9,7.06,3.33-.83,5.82,2.08-2.5,6.65,4-.83,5.41,2.5,1.25,6,2.29.21,4.37,2.08,2.08,5.2,1.46.63,3.74,2.7,1.46,5.2,1.25.62,3.12,2.91,0,4.58,2.7.83,2.5,3.53.41,4.16,3.52.88,1.67,4.45-.41,5.4,1.16,1.74,1.87,4-1,5,1.15,2,.21,4.79-2.07,4.16,0,1,.83,4.36-2.92,4,0,1.66-.83,5-3.94,4.36-.21,2.7-2.5,3.54-4.78,2.7-1.45,2.7-2.91,3.53-6,1.87-.62,1-4.78,4-6.86.83-.62.84-2.08,2.5-2.08,2.5" transform="translate(-80.58 -180.67)"/><path class="cls-15" d="M397.4,352.25c3.12-1,6.44-1,7.9.21s-3.12,6.24-4.37,7.27S376.4,371,375.78,371.79" transform="translate(-80.58 -180.67)"/><path class="cls-15" d="M393.45,363.48c1.25-.21,6-1.46,7.07.41s-2.29,5-4.58,6.24-20.79,7.06-21.41,7.48" transform="translate(-80.58 -180.67)"/><path class="cls-15" d="M390.54,372.2c1.67-.42,6.65-.42,7.28.62s-.62,4.37-5,6-19.13,3.53-19.13,3.53" transform="translate(-80.58 -180.67)"/><path class="cls-15" d="M389.7,379.9c1.87,0,5.82.63,5.62,1.87s-2.7,4.57-7.48,5.2a70.76,70.76,0,0,1-12.89.31" transform="translate(-80.58 -180.67)"/><path class="cls-15" d="M389.5,386.54c1.54.16,4.88,1,4.36,2.29-.72,1.74-3.57,3.55-7.17,3.64A65.31,65.31,0,0,1,376,392" transform="translate(-80.58 -180.67)"/><path class="cls-15" d="M389.5,392.37c1.54.15,4.88,1,4.36,2.29-.72,1.74-3.57,3.55-7.17,3.64a41.52,41.52,0,0,1-9.87-.94" transform="translate(-80.58 -180.67)"/><path class="cls-15" d="M388.46,398.39c1.52.34,5.13,2.46,4.47,3.64-.92,1.64-3.91,2.53-7.49,2.19-4.32-.42-6.11-.74-7.17-1.25" transform="translate(-80.58 -180.67)"/><path class="cls-15" d="M387.42,404.42c1.52.34,5.34,2.77,4.68,4-.93,1.64-2.65,2.63-6.24,2.28a29.39,29.39,0,0,1-9.15-2.6" transform="translate(-80.58 -180.67)"/><path class="cls-15" d="M386,410.92c1.45.56,4.73,3.17,3.9,4.25-1.15,1.49-4.23,1.94-7.72,1.07-4.21-1-5.94-1.61-6.92-2.27" transform="translate(-80.58 -180.67)"/><path class="cls-15" d="M384.09,416.69c1.46.9,4.78,4.16,3.95,5.2-1.3,1.62-4.91,2.08-8.5.44-4.33-2-6.08-2.94-7-3.85" transform="translate(-80.58 -180.67)"/><path class="cls-15" d="M381.18,423.13c1.27.9,2.84,5,1.77,5.82-1.49,1.15-4.83.25-8-1.46a20,20,0,0,1-6.13-4.78" transform="translate(-80.58 -180.67)"/><path class="cls-15" d="M376.82,428.54c1.27.9,2.52,4.36,1.45,5.19-1.49,1.15-4.36.42-7.59-2a42.48,42.48,0,0,1-6.13-5.3" transform="translate(-80.58 -180.67)"/><path class="cls-15" d="M370.68,431.91c1.17,1,2.3,5.26,1.15,6-1.6,1-5,.41-7.81-2.29a47.81,47.81,0,0,1-5.7-6.45" transform="translate(-80.58 -180.67)"/><path class="cls-15" d="M363.9,435.67c1.08,1.12,1.87,5.42.67,6-1.67.86-5.38-.07-7.6-2.91a64.64,64.64,0,0,1-5.3-8" transform="translate(-80.58 -180.67)"/><path class="cls-15" d="M346,448.7c1,1.87,2.46,8.42,4.58,11.43,1.45,2.08,4.9,3.72,4.78,3.74,3.33-.42,3.12-5.2,3.33-6.45" transform="translate(-80.58 -180.67)"/><path class="cls-15" d="M351.66,442.88c1,2.28,4.79,10.6,6.45,13.09,1.55,2.33,4.78,5.2,7.69,4.57s2.08-6,1.87-6.65" transform="translate(-80.58 -180.67)"/><path class="cls-15" d="M365.18,437.06c1,1.25,8.52,11.23,10.39,12.68,1.16.9,1.46,6-1.66,6.86-4.1,1.09-7.28-4.16-8.94-6.24s-5.2-8.52-6-9.77" transform="translate(-80.58 -180.67)"/><path class="cls-15" d="M375.57,449.74c2.29,1.45,5.2,2.28,7.48,1.45s1.14-5.2.73-6.86" transform="translate(-80.58 -180.67)"/><path class="cls-15" d="M371.62,432.9c2.08,2.08,4.18,4.69,6.65,6.86a55,55,0,0,0,6.65,5.19c2.29,1.46,5.23,1.68,6.24.83,1.25-1,.62-5-.21-6.65" transform="translate(-80.58 -180.67)"/><path class="cls-15" d="M376.84,428.43c2.27,1.88,4.61,4.29,7.26,6.21a54.6,54.6,0,0,0,7.11,4.56c2.41,1.24,5.36,1.18,6.29.25,1.14-1.16.16-5-.83-6.61" transform="translate(-80.58 -180.67)"/><path class="cls-15" d="M381.67,423.34c2.42,1.67,5,3.86,7.78,5.55a55.1,55.1,0,0,0,7.48,3.91c2.51,1,5.44.7,6.29-.31,1-1.25-.29-5-1.41-6.5" transform="translate(-80.58 -180.67)"/><path class="cls-15" d="M385.34,416.9c2.58,1.41,6.25,3.7,9.22,5.09a55.47,55.47,0,0,0,7.84,3.12c2.6.76,5.48.15,6.22-.94.91-1.35-.8-5-2.06-6.33" transform="translate(-80.58 -180.67)"/><path class="cls-15" d="M387.84,411.08c2.76,1,7.38,3.46,10.53,4.37a54.43,54.43,0,0,0,8.24,1.85c2.69.34,5.44-.72,6-1.92.68-1.47-2.51-5.65-4-6.8" transform="translate(-80.58 -180.67)"/><path class="cls-15" d="M388.46,404.42c2.7,1.46,9.22,2.37,12.47,2.91a68.68,68.68,0,0,0,9.44,1c2.71,0,5.32-1.34,5.73-2.58.51-1.54-2.78-4.75-4.36-5.72" transform="translate(-80.58 -180.67)"/><path class="cls-15" d="M389.08,398.39c2.93.19,11.87,1.88,15.16,1.88a54.62,54.62,0,0,0,8.42-.5c2.68-.42,5-2.21,5.23-3.51.25-1.6-2.83-4.16-4.56-4.85" transform="translate(-80.58 -180.67)"/><path class="cls-15" d="M390.12,392.16c2.94.05,11,.45,14.31.3a55.36,55.36,0,0,0,8.4-.88c2.65-.54,4.92-2.42,5.06-3.73.18-1.62-3-4-4.77-4.64" transform="translate(-80.58 -180.67)"/><path class="cls-15" d="M390.54,386.34c2.93-.2,11.32-1.48,14.55-2.08a55.69,55.69,0,0,0,8.77-2.14,6.59,6.59,0,0,0,4.11-5.55c0-1.62-4.64-2.65-6.44-3.11" transform="translate(-80.58 -180.67)"/><path class="cls-15" d="M391,379.68c2.88-.59,11.59-3.5,14.76-4.36a41.51,41.51,0,0,0,7.27-2.91c2.48-1.11,3.91-3.81,3.33-5-.83-1.66-3.77-1.65-5.61-1.87" transform="translate(-80.58 -180.67)"/><path class="cls-15" d="M391.78,372c3.33-.83,15.94-5.06,18.92-6.44s5.86-2.94,8.1-4c2.48-1.11,5.14-5.34,5-6.65-.18-1.61-5.84-2.07-7.69-2.28" transform="translate(-80.58 -180.67)"/><path class="cls-15" d="M400.93,359.73c4-1.5,14.74-6.88,17.67-8.52s7.05-3.31,8.73-5c2.5-2.49,3.48-5.55,3.33-6.86-.18-1.62-4.36-2.91-7.69-2.29" transform="translate(-80.58 -180.67)"/><path class="cls-15" d="M350.05,459.49c.21,2.08-1,2.86-1.58,3.69S346,463,346,463" transform="translate(-80.58 -180.67)"/><path class="cls-15" d="M278.25,418.28c-2.06,2.1-12,2.18-16.68-5.67s-6.38-17-3.5-20.76,11.56-9.66,5.67-17.1-24.44-24.4-34.36-31.3-33.76-19.19-46.49-21.55c-3.68-.69-2.08,3.74-.21,5.2,2.83,2.19,25.54,14.81,27.58,16.52,2.35,2,29.45,16.57,32.18,19.26-.39,2.91,3.78,4.54,8,7-3.33-.8-5.8,2.13,2.55,6.63-4-.8-5.38,2.54-1.2,6-2.29.23-4.35,2.11-2,5.21-1.45.64-3.72,2.74-1.41,5.21-1.24.63-3.09,2.94,0,4.57-2.7.85-2.47,3.55-.38,4.16-3.51.91-1.63,4.47.46,5.4-1.14,1.74-1.84,4,1.08,5-1.13,2-.17,4.78,2.12,4.14,0,1-.8,4.37,2.94,3.92,0,1.67.88,5,4,4.33.23,2.7,2.52,3.51,4.8,2.66,1.48,2.69,2.94,3.51,6,1.82.63,1,4.82,3.91,6.87.77a19.45,19.45,0,0,0,1.81,1.92" transform="translate(-80.58 -180.67)"/><path class="cls-15" d="M226.13,353.25c-3.13-1-7.08-1.46-7.9.28-1.74,3.71,2.75,5.86,4.43,7.23,1.25,1,24.62,11,25.25,11.84" transform="translate(-80.58 -180.67)"/><path class="cls-15" d="M230.18,364.44c-1.25-.2-6-1.4-7.06.48s2.33,5,4.63,6.2,20.85,6.89,21.47,7.3" transform="translate(-80.58 -180.67)"/><path class="cls-15" d="M233.16,373.15c-1.67-.4-6.65-.36-7.27.68s.67,4.36,5,6,19.15,3.36,19.15,3.36" transform="translate(-80.58 -180.67)"/><path class="cls-15" d="M234.06,380.83c-1.87,0-5.82.68-5.59,1.92s2.74,4.55,7.53,5.13a71.73,71.73,0,0,0,12.89.2" transform="translate(-80.58 -180.67)"/><path class="cls-15" d="M234.33,387.48c-1.55.17-4.87,1.07-4.35,2.32.73,1.73,3.6,3.52,7.2,3.58a65.17,65.17,0,0,0,10.7-.61" transform="translate(-80.58 -180.67)"/><path class="cls-15" d="M234.38,393.3c-1.55.17-4.87,1.08-4.35,2.32.73,1.73,3.6,3.51,7.2,3.57a41.77,41.77,0,0,0,9.87-1" transform="translate(-80.58 -180.67)"/><path class="cls-15" d="M235.47,399.32c-1.52.35-5,2-4.44,3.67s3.92,2.5,7.5,2.12c4.32-.46,6.1-.79,7.16-1.31" transform="translate(-80.58 -180.67)"/><path class="cls-15" d="M236.56,405.34c-1.52.36-5.31,2.82-4.64,4,.94,1.63,2.67,2.61,6.26,2.23a29.46,29.46,0,0,0,9.12-2.67" transform="translate(-80.58 -180.67)"/><path class="cls-15" d="M237.34,411.7c-1.45.57-4,3.34-3.17,4.4,1.16,1.48,4.24,1.91,7.73,1,4.2-1.07,5.92-1.66,6.89-2.33" transform="translate(-80.58 -180.67)"/><path class="cls-15" d="M240,417.57c-1.45.91-4.12,4.74-3.28,5.77,1.32,1.62,4.3,1.5,7.88-.16,4.31-2,6.05-3,7-3.91" transform="translate(-80.58 -180.67)"/><path class="cls-15" d="M243,424c-1.26.92-2.79,5-1.72,5.84,1.5,1.14,4.84.22,8-1.52a20,20,0,0,0,6.09-4.83" transform="translate(-80.58 -180.67)"/><path class="cls-15" d="M247.37,429.36c-1.26.91-2.48,4.39-1.41,5.21,1.5,1.14,4.37.38,7.57-2a42,42,0,0,0,6.09-5.35" transform="translate(-80.58 -180.67)"/><path class="cls-15" d="M253.54,432.69c-1.16,1-2.25,5.28-1.1,6,1.61,1,5,.37,7.79-2.36a48.86,48.86,0,0,0,5.65-6.49" transform="translate(-80.58 -180.67)"/><path class="cls-15" d="M260.35,436.38c-1.07,1.13-1.82,5.44-.61,6.06,1.68.84,5.37-.13,7.57-3a64.13,64.13,0,0,0,5.23-8" transform="translate(-80.58 -180.67)"/><path class="cls-15" d="M278.18,449.53c-1.44,2.65-2.92,8.78-4.35,11.2-1.6,2.71-3.52,3.93-4.75,3.79-3.33-.39-3.16-5.17-3.38-6.42" transform="translate(-80.58 -180.67)"/><path class="cls-15" d="M273,442.88c-1.2,2.71-5.25,11.59-6.67,13.75-1.53,2.34-4.73,5.24-7.65,4.64s-2.13-6-1.92-6.64" transform="translate(-80.58 -180.67)"/><path class="cls-15" d="M259.09,437.78c-1.57,1.92-9,11.74-10.29,12.77-1.15.91-1.4,6,1.72,6.85,4.11,1.05,7.24-4.22,8.89-6.31s5.12-8.57,5.94-9.82" transform="translate(-80.58 -180.67)"/><path class="cls-15" d="M248.8,450.55c-2.27,1.47-5.17,2.33-7.47,1.52s-1.19-5.19-.78-6.85" transform="translate(-80.58 -180.67)"/><path class="cls-15" d="M252.6,433.68c-2.06,2.09-4.14,4.72-6.59,6.92a54.39,54.39,0,0,1-6.61,5.26c-2.27,1.48-5.21,1.72-6.23.88-1.26-1-.67-5,.15-6.65" transform="translate(-80.58 -180.67)"/><path class="cls-15" d="M247.34,429.26c-2.25,1.9-4.56,4.32-7.21,6.27a54.51,54.51,0,0,1-7.06,4.62c-2.4,1.25-5.35,1.23-6.28.3-1.15-1.14-.2-5,.77-6.61" transform="translate(-80.58 -180.67)"/><path class="cls-15" d="M242.48,424.21c-2.41,1.68-4.93,3.9-7.73,5.61a54.91,54.91,0,0,1-7.45,4c-2.5,1-5.43.75-6.28-.26-1.05-1.24.25-5.79,1.36-7.29" transform="translate(-80.58 -180.67)"/><path class="cls-15" d="M238.75,417.79c-2.57,1.44-6.22,3.75-9.18,5.18a56.16,56.16,0,0,1-7.81,3.2c-2.6.78-5.48.19-6.23-.9-1.79-2.6,2.3-6.5,2.68-6.92" transform="translate(-80.58 -180.67)"/><path class="cls-15" d="M236.2,412c-2.76,1-7.34,3.53-10.5,4.46a47.74,47.74,0,0,1-7.49,1.9c-2.69.36-6.17-.64-6.74-1.83-.7-1.47,2.47-5.68,3.92-6.84" transform="translate(-80.58 -180.67)"/><path class="cls-15" d="M235.52,405.35c-2.69,1.48-9.21,2.45-12.45,3a69.67,69.67,0,0,1-9.43,1.11c-2.71.06-5.33-1.29-5.76-2.53-.52-1.54,2.74-4.77,4.31-5.75" transform="translate(-80.58 -180.67)"/><path class="cls-15" d="M234.85,399.32c-2.94.21-11.86,2-15.15,2a54.49,54.49,0,0,1-8.43-.43c-2.68-.4-4.76-1.78-5.11-3.55-.32-1.59,2.65-4.08,4.37-4.79" transform="translate(-80.58 -180.67)"/><path class="cls-15" d="M233.75,393.1c-2.94.08-11,.54-14.3.42a54.53,54.53,0,0,1-8.4-.8c-2.66-.52-4.94-2.38-5.1-3.69-.19-1.62,3.87-4.34,5.62-5" transform="translate(-80.58 -180.67)"/><path class="cls-15" d="M233.28,387.28c-2.93-.17-11.33-1.38-14.57-2a55.75,55.75,0,0,1-8.79-2.06c-3.08-1.16-4.6-3.16-3.76-5,.66-1.48,4.22-3.17,6-3.66" transform="translate(-80.58 -180.67)"/><path class="cls-15" d="M232.81,380.63c-2.89-.57-11.62-3.4-14.8-4.24a41.12,41.12,0,0,1-7.3-2.85c-2.49-1.09-4.93-3.07-4.35-4.26.81-1.67,4.73-2.39,6.58-2.62" transform="translate(-80.58 -180.67)"/><path class="cls-15" d="M231.91,372.95c-3.33-.8-16-4.91-19-6.28s-5.89-2.89-8.14-3.88c-2.85-1.25-5.37-3.48-5-6.61.17-1.62,4.95-2.69,7.67-2.36" transform="translate(-80.58 -180.67)"/><path class="cls-15" d="M223.6,360.94c-1.58-.56-13.86-5.64-18.22-8.2-2.9-1.7-5.56-3.48-7.7-4.69-2.36-1.34-4.7-5.83-4.34-7.1.76-2.62,7.63-1.33,9.49-1.38" transform="translate(-80.58 -180.67)"/><path class="cls-15" d="M274.07,441.37c-1.07,1.13-1.82,5.45-.61,6.06,2.3,1.15,1.64,1.78,4.52-2.05" transform="translate(-80.58 -180.67)"/><path class="cls-15" d="M267.17,439.59c-1.07,1.13-1.82,5.44-.61,6,1.68.84,5.31-1.42,7.52-4.27,2.74-3.55,3.19-8.33,4-9.71" transform="translate(-80.58 -180.67)"/><path class="cls-15" d="M274.75,458.88a8.64,8.64,0,0,0,3.33,5.82" transform="translate(-80.58 -180.67)"/><path class="cls-15" d="M278.08,467.4c-7.5-.83-10.35,3.33-10.81,4-1.25,1.66-1.25,2.66.21,2.49,1.87-.2,5-.62,6.24-.62s.21.62-.62,1.25-3.12,1.66-3.95,3.32-1.25,1,.63,1.66,3.95-.21,5.61-.42.42,0-.41.84-3.65,2.79-4.16,4.15c-.63,1.66-1.25,2.08-1,2.9s1,1.11,2.33,1.11a8.66,8.66,0,0,0,2.65-.23,14.69,14.69,0,0,0-2.65,3.68c-1,1.87,0,2.53.58,3.14s2.59.38,4.25,0c1.18-.29,2-1.22,4.95-3.11" transform="translate(-80.58 -180.67)"/><path class="cls-15" d="M267.27,471.36c-2.08.21-4.15,2.08-6,3.54a12.38,12.38,0,0,0-3.95,5.19c-1,2.29.21,1.25,1.25,1.25a12.68,12.68,0,0,0,2.91-.63" transform="translate(-80.58 -180.67)"/><path class="cls-15" d="M269.35,475.93c-1.87.42-4.16,1-5.61,2.71a14,14,0,0,0-2.7,4.16,4.36,4.36,0,0,0-.42,2.49c0,.42,2.08-.21,2.7-.41a17.33,17.33,0,0,0,3.12-.83" transform="translate(-80.58 -180.67)"/><path class="cls-15" d="M270.6,480.29c-1.87.83-3.95,3.53-5.2,4.78s-1.45,2.91-2.08,4.37,0,1.87,0,2.49.84.63,2.08.42a7.38,7.38,0,0,0,2.91-1.25" transform="translate(-80.58 -180.67)"/><path class="cls-15" d="M271,488c-.83.83-2.7,2.29-3.54,4.16a14.65,14.65,0,0,0-1,3.74c-.42,1.67,1.45,1.25,2.7,1s7.07-3.61,4.37-1.45A11.82,11.82,0,0,0,271,499c-.83,1.46,0,1.66,1.66,1.46,6-.74,4.83-1.33,8.1-3.11a102.54,102.54,0,0,0,8.44-6.25" transform="translate(-80.58 -180.67)"/><path class="cls-15" d="M262.28,480.08c-2.08,1-6.24,4-7.48,7.07-.86,2.16,0,1.25,0,2.08s2.14.42,3.53,0c2.08-.62,4.37-1.87,5.4-1.67" transform="translate(-80.58 -180.67)"/><path class="cls-15" d="M257.29,480.08c-1.45.83-5.61,2.91-6.86,6s-1.25,1.87-1,2.7,1.25.84,3.12-.2c1.16-.65,1.45-1.25,2.29-1.46" transform="translate(-80.58 -180.67)"/><path class="cls-15" d="M255.42,489.85a13.19,13.19,0,0,0-2.7,4.37c-.42,1.25.62,1.87,2.08,1.45a38.71,38.71,0,0,1,3.95-1,18.7,18.7,0,0,0,4.57-2.71c-1,.63-6.23,4.57-6.86,6.24s-1,2.28.83,2.08a23.45,23.45,0,0,0,6.24-2.08c.83-.42,2.5-1.67,3.12-1.45" transform="translate(-80.58 -180.67)"/><path class="cls-15" d="M263.53,498.17c-1.25,1.25-2.29,1.45-3.12,2.49s-1.25,1.25,1,1.66,7.69-.2,9.35-2.08" transform="translate(-80.58 -180.67)"/><path class="cls-15" d="M249.4,488.82a16.59,16.59,0,0,0-4.78,2.91c-1.45,1.25-1.87,1.87,0,2.29a40.05,40.05,0,0,0,6.77.36" transform="translate(-80.58 -180.67)"/><path class="cls-15" d="M260.2,501.5c-.62.42-3.12,2.08-5.4,1.87" transform="translate(-80.58 -180.67)"/><path class="cls-15" d="M231.11,492.35c1.66.42,11.22.42,12.47.42" transform="translate(-80.58 -180.67)"/><path class="cls-15" d="M256,503.17c-2.5,0-7.48-.42-9.56-2.08.52.41-13.61-.78-14.09-.9" transform="translate(-80.58 -180.67)"/><path class="cls-15" d="M221.34,487.15c.41-2.28,5.37-6.56,9.56-3.12,3.53,2.9.07,9.88-1.38,9.88" transform="translate(-80.58 -180.67)"/><path class="cls-15" d="M221.92,487.7a5.33,5.33,0,0,0-5.78,1.11c-1.87,1.87-5.73,5.72-6.44,7.28a3.63,3.63,0,0,0,3.95,5.3" transform="translate(-80.58 -180.67)"/><path class="cls-15" d="M225.07,494.64c-1.25-.21-1.45-1.14-3.53-.31s-7.07,5.72-7.49,6.55-1.66,3.53-.41,5,3.95,1.66,5,1.46" transform="translate(-80.58 -180.67)"/><path class="cls-15" d="M223.62,494a3.63,3.63,0,0,0,.59-3" transform="translate(-80.58 -180.67)"/><path class="cls-17" d="M223.3,491.27a1.72,1.72,0,0,1-2.76.23c-.42-.21-1.18-1.45.69-3.11s4.25.35,5.4,1.88c1.32,1.76-.45.28-2.43.7Z" transform="translate(-80.58 -180.67)"/><path class="cls-17" d="M230.9,494.64c1.87-.63-4.76-1.75-6.21.54a2.13,2.13,0,0,0,1.73,3.46c.83-.21.86-.31,1.47-1.4A8.62,8.62,0,0,1,230.9,494.64Z" transform="translate(-80.58 -180.67)"/><path class="cls-15" d="M229.06,499c-.42-.59-2.22-.26-4.4,2.1-2.5,2.7-5.82,5.41-6.24,7.27a4.28,4.28,0,0,0,5.82,4.58c4.37-1.46,6.29-5.53,7.46-7.22a15.4,15.4,0,0,0,.81-5.23" transform="translate(-80.58 -180.67)"/><path class="cls-17" d="M231.47,502.55a2.24,2.24,0,0,1-2,.41c-1.19-.25-1.7-1.52-.63-2.81s1.51-1.17,2.6-3.33a5.77,5.77,0,0,1,.63,4.35Z" transform="translate(-80.58 -180.67)"/><path class="cls-15" d="M346.46,466.37A14.66,14.66,0,0,1,359,470.79c1.26,1.66,1.27,2.65-.19,2.49-1.87-.2-5-.6-6.24-.59s-.21.63.63,1.25,3.13,1.65,4,3.31,1.25,1-.61,1.67-4-.19-5.62-.39-.42,0,.42.83,3.66,2.78,4.18,4.14c.63,1.66,1.26,2.07,1.06,2.91s-2.08,1-3.32.64c-.19-.06-3.67-.45-3.93-.6a10.14,10.14,0,0,1,4.37,4.37c.93,1.93,0,2.46,0,3.29s-2.08.21-3.75-.19c-2.77-.68-5.77-2-6.71-3.28" transform="translate(-80.58 -180.67)"/><path class="cls-15" d="M359,470.79c2.08.2,4.17,2.06,6,3.5a12.37,12.37,0,0,1,4,5.18c1.05,2.28-.2,1.25-1.24,1.25a12.9,12.9,0,0,1-2.92-.61" transform="translate(-80.58 -180.67)"/><path class="cls-15" d="M354.79,474c2.3,1.15,6.29,2.42,7.76,4.07a14.08,14.08,0,0,1,2.72,4.14c.63,1.46.75,2,.53,2.31s-2.23.21-2.86,0a17.56,17.56,0,0,1-3.07-1" transform="translate(-80.58 -180.67)"/><path class="cls-15" d="M355.09,479.26c1.88.82,4.58,4,5.83,5.25s1.55,2.87,2.1,4.36a2.82,2.82,0,0,1,0,2.49c-.24.58-.83.63-2.08.42a7.19,7.19,0,0,1-2.91-1.23" transform="translate(-80.58 -180.67)"/><path class="cls-15" d="M354.53,487.14c.83.82,3.51,2.57,4.35,4.43a14.9,14.9,0,0,1,1.06,3.74c.42,1.66-1,1.79-2.34,1.71a10.85,10.85,0,0,1-3.91-1.38,31.82,31.82,0,0,1,1.69,2.82c.84,1.45,0,1.82-1.65,1.46-6-1.34-5.2-1.62-8.41-2.95a34.86,34.86,0,0,1-8.62-5.45" transform="translate(-80.58 -180.67)"/><path class="cls-15" d="M364,479.5c2.09,1,6.26,3.92,7.52,7,.88,2.15,0,1.25,0,2.08s-2.14.43-3.54,0c0,0-7.41-3.41-5.69-2.09" transform="translate(-80.58 -180.67)"/><path class="cls-15" d="M369,479.47c1.46.82,5.45,3,6.89,6,1,2.05.92,2.63.87,2.83-.21.83-1.35.1-3.23-.93a5.62,5.62,0,0,0-2-.84" transform="translate(-80.58 -180.67)"/><path class="cls-15" d="M370.93,489.23a13,13,0,0,1,2.72,4.35c.43,1.25-.87,1.14-2.36.87-1.67-.31-2.47-.07-3.66-.42a28.77,28.77,0,0,1-4.48-2.5c1,.62,5.91,4.48,6.78,6,.75,1.35.7,2.18-.82,2.08a20.5,20.5,0,0,1-6.25-2c-.83-.41-2-1.49-2.72-1.8" transform="translate(-80.58 -180.67)"/><path class="cls-15" d="M362.86,497.59c1.38,1.11,2.3,1.44,3.13,2.48s1.25,1.24-1,1.67-7.69-.17-9.37-2" transform="translate(-80.58 -180.67)"/><path class="cls-15" d="M376.87,487.67a18.73,18.73,0,0,1,4.88,3.37c1.46,1.24,1.88,1.86,0,2.28a26.15,26.15,0,0,1-5.93.38c-1.25,0-2-.16-2-.16" transform="translate(-80.58 -180.67)"/><path class="cls-15" d="M373.65,493.58c1.66.33,4.79,2.47,6.27,4.75,1.31,2,0,2.08-1.86,2.09a66.47,66.47,0,0,1-8.12-2.86" transform="translate(-80.58 -180.67)"/><path class="cls-15" d="M382.79,492.08c1.25,0,9.36.36,11-.06" transform="translate(-80.58 -180.67)"/><path class="cls-15" d="M393.86,499.73c-.39.1-9.95.78-13,.78" transform="translate(-80.58 -180.67)"/><path class="cls-15" d="M379.92,500.41c-2.69,2.18-6.43,1.92-8.56,2a9.56,9.56,0,0,1-4.84-1.25" transform="translate(-80.58 -180.67)"/><path class="cls-15" d="M404.17,486.35c-.43-2.28-2.84-6.29-8.43-3.77s-2.23,9.5-.47,10.05" transform="translate(-80.58 -180.67)"/><path class="cls-15" d="M404.15,486.89c2.54-1.61,4.6-.35,6.05,1.09,1.88,1.86,5.77,5.68,6.49,7.24a3.63,3.63,0,0,1-3.93,5.32" transform="translate(-80.58 -180.67)"/><path class="cls-15" d="M401.3,493.85c1.25-.21,1.45-1.15,3.53-.33s7.1,5.68,7.51,6.5,1.68,3.53.44,5-3.94,1.68-5,1.48" transform="translate(-80.58 -180.67)"/><path class="cls-15" d="M402.75,493.22c-1.56-.62-1.53-2.47-.85-2.7" transform="translate(-80.58 -180.67)"/><path class="cls-17" d="M403.52,491.27c.44.14,2.66-1.52,1.52-3.39-2.11-3.45-7,1.41-6.7,1-.45.51,2.31.16,3.58,1.6Z" transform="translate(-80.58 -180.67)"/><path class="cls-17" d="M395.63,493.81c-1.88-.61,4.83-1.82,6.29.46a2.43,2.43,0,0,1-2.16,4c-.85-.09-1-.57-1.56-1.66A8.58,8.58,0,0,0,395.63,493.81Z" transform="translate(-80.58 -180.67)"/><path class="cls-17" d="M393.74,498.75a5.6,5.6,0,0,1,.64-3.07,22.2,22.2,0,0,0,2,2.85l1.72.8a2.55,2.55,0,0,1-.12,2.77c-1.38,1.49-2.3.57-3.34-.58Z" transform="translate(-80.58 -180.67)"/><path class="cls-15" d="M394.2,500.82c-.35.8-1.16,2.22.3,3.67s3.36,6.22,7.74,7.65a4.27,4.27,0,0,0,5.8-4.6c-.42-1.87-3.77-4.55-6.28-7.24-2.19-2.35-3.87-3-4.91-2.12" transform="translate(-80.58 -180.67)"/><path class="cls-15" d="M316.06,494.72c-.54-.59,10.71,11.57,6.72,14.47-4.56,3.31-7.9-7.66-7.75-9.4" transform="translate(-80.58 -180.67)"/><path class="cls-15" d="M319.85,491.16c1.46,1.46,4.84,5,2.3,7a2.37,2.37,0,0,1-3.33-.21" transform="translate(-80.58 -180.67)"/><path class="cls-15" d="M321.94,493.39c2.29,1.87,7.76,8.37,6.52,10.87-1.46,1.87-4.81.25-6.06-.79" transform="translate(-80.58 -180.67)"/><path class="cls-15" d="M326.93,491.11c.83,1.25,1.66,3.12.21,4.36-1,.87-6.6-2.93-4.36-1.25" transform="translate(-80.58 -180.67)"/><path class="cls-15" d="M327.76,490.89c1.45,1.46,4.78,4.78,3.95,6.66s-4.11,1.29-6.81-.58" transform="translate(-80.58 -180.67)"/><path class="cls-15" d="M309.84,500.36c.26-.87-3,13.11,3.16,12.15,4.94-.78,1.47-13.06,1.66-13.09" transform="translate(-80.58 -180.67)"/><path class="cls-15" d="M304.55,491.39c-1.25,3.53-.64,7.14-.07,8,1.46,2.28,3.82.21,4.44-1.25" transform="translate(-80.58 -180.67)"/><path class="cls-15" d="M298.25,490.89c-3.62,2.3-5.1,6.1-3.54,7.28s5.55.5,8.47-3.66" transform="translate(-80.58 -180.67)"/><path class="cls-15" d="M303.44,495.31c.26-.53-7.27,5.78-4.78,8.48s6.17-3.42,6.23-3.3-5.48,7.89-1,8.92c2.7.62,5-3,5.64-3.82" transform="translate(-80.58 -180.67)"/><path class="cls-15" d="M330.67,499.21c14.55,10.4,21.5,27.46,21.82,28.06,3.32,6.24-11.85-6.44-13.72-7.69" transform="translate(-80.58 -180.67)"/><path class="cls-15" d="M327.35,503.78c12.73,12.55,17.47,32.34,17.69,33,2.31,6.68-10.69-8.23-12.34-9.75" transform="translate(-80.58 -180.67)"/><path class="cls-15" d="M324,506.9c9.53,13,11.88,38.68,11.84,37.21.21,7.27-9.37-11.35-10.39-12.68" transform="translate(-80.58 -180.67)"/><path class="cls-15" d="M318,507.11c10,18.87,7.87,41.35,7.69,42.82-.85,7.23-7.1-10.58-7.92-12" transform="translate(-80.58 -180.67)"/><path class="cls-15" d="M295.8,498.79c-13.26,9.54-22.75,29.61-22.43,29-3.3,6.25,12.4-7,14.27-8.21" transform="translate(-80.58 -180.67)"/><path class="cls-15" d="M298.43,504.21c-12.69,12.6-17.35,32.4-17.57,33-2.28,6.69,10.66-8.27,12.3-9.79" transform="translate(-80.58 -180.67)"/><path class="cls-15" d="M301.77,507.32C292.29,520.38,290,546,290.06,544.57c-.17,7.28,9.44-11.39,10.47-12.72" transform="translate(-80.58 -180.67)"/><path class="cls-15" d="M307.8,507.5c-9.91,18.9-7.71,41.38-7.53,42.85.87,7.22,7.06-10.6,7.88-12.07" transform="translate(-80.58 -180.67)"/><path class="cls-15" d="M310.31,511c-.82,2.91-2.81,25.37-2.17,29.94s2.26,16.14,4.76,16.76c2.49-.62,4.26-12.57,4.89-17.15s-1.46-27-2.29-29.93" transform="translate(-80.58 -180.67)"/><path class="cls-18" d="M230.48,508.56a29.16,29.16,0,0,1,3.74,8.31,34.36,34.36,0,0,1,.41,12.06c-.44,4.36,2.91,5.61,4.37,6a12.12,12.12,0,0,1,4.57,2.7c.62.83,1.87,1.75,1.87-.63,0-2.7-3.53-13.72-5.19-19.12s-6-12.06-7.69-13.1A15.05,15.05,0,0,1,230.48,508.56Z" transform="translate(-80.58 -180.67)"/><path class="cls-18" d="M189.63,458.75a2.38,2.38,0,1,0-2.38-2.38A2.38,2.38,0,0,0,189.63,458.75Z" transform="translate(-80.58 -180.67)"/><path class="cls-18" d="M189.63,456.38" transform="translate(-80.58 -180.67)"/><circle class="cls-18" cx="95.98" cy="295.08" r="2.25"/><path class="cls-18" d="M176.56,475.76" transform="translate(-80.58 -180.67)"/><path class="cls-18" d="M214.44,469.41c.83-1.25,3.36-4.7,4.81-5.75s4.78-1.45,6.24-2.08,1-1.25,3.32-2.08c0,0-1.45,3.74-2.08,4.78s-.62,2.91-1.87,6-7.27,7.07-8.11,7.28a8.35,8.35,0,0,0-3.58,3.55c2.42-1.5,3.68.11,3.57,1.49-.24,2.81-3.23,2.19-3.52,1.19-.47-1.59-1.84,1.61-1.25,2.5.83,1.24,1.51,1.24,3.38,2.49l-3,3.15c-.41-1-3.3-2.73-4.34-3.35l-1.87,1a42,42,0,0,1,0,12.26c-.83,6.65-6.86,12.06-9.36,14.35a4.36,4.36,0,0,0-.41-3.12c-.44-.89-.52-2.92-.13-8.75V503c-3.48,2.37-8.27,4.3-9.85,4.3.83-.62,1-4.36,1.46-7.48s6-6.21,6.78-6.84c-.62-.42-1.4.37-2.07-.69-.81-1.27-.24-1.93.81-2.76s3.11.52,2.8,2.08c.42-.63,2.49-1.35,3.53-2.18-1.66-1-1.25-3.12.83-3.54,1.92-.38,2.29,1.25,2.29,2.5,0,.62,1.66-.84,2.91-1.46-.83-.83-1.66-.62-2.7-1.45a3.75,3.75,0,0,0-4.16-.21c-2.14,1.22-6.77,5.69-9.77,7.28-3.53,1.87-10.6,1-12.06.42.42-.62,2.5-1,3.12-4,.25-1.16,1.51-1.9,2.73-2.81l-1.07-.09c-3.95.83-8.11-3.12-9.56-4.37.62-.21,3.06,0,4.36-1.67,2-2.51,8.89-2.39,10.76-2.39l-2.19-.92c-1.27-1.48.28-3.42,2-3.44s2.11,1,2,2.63a34.8,34.8,0,0,1,4.65,2c-1-1.39-3.46-7.35-9.15-5.62-4.78,1.45-11.43-1.24-12.68-1.87s-3.33-2.91-4.78-3.54-4.57.42-2.08-1.46a12.56,12.56,0,0,1,6.88-2.11l-2-1.3c-1-.42-1.74-.33-3-1.58s-3.74-3.53-5.19-5.19a13.82,13.82,0,0,1,7.9-1.87,8.51,8.51,0,0,1,3.74,1.25c-.42-.62-1-.62-.83-1.87a2.64,2.64,0,0,1,3.32-1.71c1.35.51.52,3.4,0,3.91,1,0,3.13-.33,4.38-.33-.47-1.58.81-4.35-4.78-6.65-9.5-3.92-7.89-2.44-13.1-8.94-1.66-2.08-2.7-7.48-3.12-10.18,1,1.25,1.66.83,3.12,2.91s4.37,2.5,7.9,4.36,7.48,8.32,8.94,10.81c0-2.08-2.49-9.35-4.36-11s-4.36-8.32-4.57-11.43,2.29-10.39,3.33-12.47c0,1,1,.62,5.4,8.73s1.2,10.5.79,14l-.46,3c.23-1.15.46-2.76.92-4.37a17.28,17.28,0,0,0,.84-6c.83-4.58,6.44-9.35,8.52-11,2.49,10.6-2.7,17.25-4,18.71-2,.32-2.13,1.51-2,2.37l-.23,2.07c-2.54,2.54-2.39,6.51-1.84,10.9l1.12,4.2c-.21-.62-1.45-4.37-1-6.44s.41-2.91,1.66-4.36,2.65-3.5,2.86-4.75c-.23,0-2.53.46-2.53-1.61,0-1.67.91-2.58,2-2.37a2.93,2.93,0,0,1,2.19,2.6,53.94,53.94,0,0,1,5.92-5.51c.83,3.12,0,9.56-.83,11.64s-6.86,9.56-7.69,10.39a6.78,6.78,0,0,0-1,5.61c.63,2.08,2.08,2.91,3.33,4.78l1-.83c0-1.46.63-1.87,1.67-2.08s1.66.21,2.29,1.25-.41,2.49-1,3.53,0,1.87.62,4.16,2.49,3.53,3.95,6a25.67,25.67,0,0,0-.83-3.33,40.45,40.45,0,0,1-1.66-7.7c-.63-3.95,1.45-9.55,3.33-11.84s3.33-4.58,5-6.24c0,1.25,2.7,12.26,2.08,14.76s-2.08,7.7-3.53,8.94-1.68,2-2.1,4a2.75,2.75,0,0,1,2.83-2c-1.17-.15,3.47,0,1.2,3.8l-1.84,1.15c-.34,2.37,4.62,3.68,4.6,3.68,1,0,1.27-2.37,1.27-3-1,1.5-4.24,1.27-4-.81s1.5-2.42,3.8-1.84c0-1.66-2-4-1.77-8s3.53-8.73,5-10.19a37.49,37.49,0,0,0,4.78-6.24,7.69,7.69,0,0,0,.42,3.54c.62,1.46,1.12,8.79.45,10.85Z" transform="translate(-80.58 -180.67)"/><path class="cls-19" d="M211.68,477.24c-1.62,2-2.48,2.79-3.24,4.3-1,2.08.62,3.74,1.46,3.54s.61-1.2.83-2.5a18.94,18.94,0,0,0,.42-2.29c.3-1,.53-1.91.53-1.91Z" transform="translate(-80.58 -180.67)"/><polygon class="cls-20" points="343.29 259.81 350.62 248.72 349.62 262.44 346.91 259.52 343.29 259.81"/><polygon class="cls-20" points="328.25 278.42 333.86 266.36 334.9 280.08 331.79 277.59 328.25 278.42"/><polygon class="cls-20" points="335.56 269.58 342.36 258.15 342.02 271.91 339.16 269.11 335.56 269.58"/><polygon class="cls-20" points="344.96 268.35 353.02 257.78 351.1 271.4 348.59 268.3 344.96 268.35"/><polygon class="cls-20" points="358.27 249.84 367.18 239.96 364.14 253.38 361.9 250.08 358.27 249.84"/><polygon class="cls-20" points="364.55 254.61 373.85 245.11 370.27 258.39 368.16 255 364.55 254.61"/><polygon class="cls-20" points="365.5 264.76 376.12 256.76 370.58 269.36 369.01 265.69 365.5 264.76"/><polygon class="cls-20" points="366.56 272.25 376.27 265.53 371.08 276.26 369.71 273.09 366.56 272.25"/><polygon class="cls-20" points="355.71 286.56 367.23 279.91 360.2 291.74 359.09 287.9 355.71 286.56"/><line class="cls-15" x1="331.79" y1="277.59" x2="326.43" y2="305.44"/><line class="cls-15" x1="347.17" y1="259.92" x2="328.88" y2="306.27"/><line class="cls-15" x1="331.37" y1="309.18" x2="351.26" y2="296.19"/><polyline class="cls-15" points="361.51 250.15 329.63 307.31 367.75 254.93"/><line class="cls-15" x1="368.58" y1="266.36" x2="331.25" y2="308.05"/><line class="cls-15" x1="352.57" y1="279.25" x2="330.79" y2="307.39"/><polygon class="cls-20" points="354.15 264.13 363.26 256.64 359 267.76 357.37 264.71 354.15 264.13"/><polygon class="cls-20" points="349.79 278.06 358.91 270.57 354.63 281.69 353 278.65 349.79 278.06"/><polygon class="cls-20" points="357.48 279.1 366.59 271.61 362.32 282.73 360.69 279.68 357.48 279.1"/><line class="cls-15" x1="334.28" y1="312.09" x2="359.02" y2="288.19"/><polygon class="cls-20" points="348.25 294.5 360.39 289.07 352.18 300.12 351.47 296.19 348.25 294.5"/><polyline class="cls-20" points="304.69 335 306.06 338.49 300.66 348.83 299.03 344.06 299.03 344.06 294 344.76 300.97 335.46 304.69 335"/><polyline class="cls-20" points="300.12 334.76 300.85 338.45 293.68 347.64 292.93 342.66 292.93 342.66 287.86 342.45 296.38 334.55 300.12 334.76"/><polyline class="cls-20" points="319.03 340.75 321.27 343.76 318.78 355.15 315.94 350.98 315.94 350.98 311.28 352.98 315.56 342.18 319.03 340.75"/><polyline class="cls-20" points="308.99 335 310.5 338.42 306.11 349 304.27 344.33 304.27 344.33 299.63 345.29 305.54 335.66 308.99 335"/><line class="cls-15" x1="296.13" y1="338.22" x2="313.49" y2="323.74"/><polygon class="cls-21" points="304.56 345.14 302.06 350.13 306.63 350.13 311.21 341.4 312.04 341.2 310.4 338.91 306.11 349 304.56 345.14"/><polyline class="cls-20" points="314.77 340.4 316.7 343.63 313.09 354.71 310.68 350.28 310.68 350.28 305.85 351.8 311.18 341.48 314.77 340.4"/><path class="cls-15" d="M270.44,278.25c-3-7.48,2.82-14.25,11.17-12-1.51-6.08,6.18-13.72,14.09-7.74,1.19-6.7,10.34-10.5,16-2.81,3.43-6.65,15-6.29,15.9,2.86,3-4,15.8-4,14.45,7.79,3.84-3.12,15.9,1,11.23,11.74,8.31-.94,12.67,8.63,6.8,14.92,5.41.93,10.75,10.86,1.35,16.42,7.84,7,2.23,15.22-3.79,16,4.37,8.52-2.08,14.55-9.36,13.72,1,8.21-5.61,13.62-13.15,9.77-.88,8.21-9.46,10.81-15.33,5.3-4.05,7.8-13.15,6.81-16.27-.47a8.73,8.73,0,0,1-15.43-5.25c-6.34,3.17-14.6-.89-12.63-10.34-7.74,1.14-13-6.24-8.88-13.41-6.29-1-10.86-9.46-3.64-15.64-6.08-3-7.33-12.42,1-16.16C258.85,286.87,262.33,278.56,270.44,278.25Z" transform="translate(-80.58 -180.67)"/><polygon class="cls-6" points="218.79 119.07 219.91 122.71 223.75 122.71 221.03 124.96 222.25 129.08 218.97 126.83 215.42 128.98 216.82 125.15 213.83 122.71 217.57 122.71 218.79 119.07"/><polygon class="cls-6" points="244.96 119.07 246.08 122.71 249.92 122.71 247.21 124.96 248.42 129.08 245.15 126.83 241.59 128.98 243 125.15 240 122.71 243.74 122.71 244.96 119.07"/><polygon class="cls-6" points="252.05 130.42 253.17 134.07 257.01 134.07 254.29 136.31 255.51 140.43 252.24 138.18 248.68 140.33 250.09 136.5 247.09 134.07 250.83 134.07 252.05 130.42"/><polygon class="cls-6" points="239.02 130.42 240.15 134.07 243.98 134.07 241.27 136.31 242.48 140.43 239.21 138.18 235.66 140.33 237.06 136.5 234.07 134.07 237.81 134.07 239.02 130.42"/><polygon class="cls-6" points="225.56 130.42 226.68 134.07 230.51 134.07 227.8 136.31 229.01 140.43 225.74 138.18 222.19 140.33 223.59 136.5 220.6 134.07 224.34 134.07 225.56 130.42"/><polygon class="cls-6" points="212.76 130.42 213.88 134.07 217.72 134.07 215.01 136.31 216.22 140.43 212.95 138.18 209.39 140.33 210.8 136.5 207.8 134.07 211.54 134.07 212.76 130.42"/><polygon class="cls-6" points="232.18 141.28 233.31 144.93 237.14 144.93 234.43 147.17 235.65 151.29 232.38 149.04 228.82 151.19 230.22 147.36 227.23 144.93 230.97 144.93 232.18 141.28"/><polygon class="cls-6" points="251.31 107.44 252.43 111.08 256.27 111.08 253.56 113.33 254.77 117.44 251.5 115.2 247.95 117.35 249.34 113.52 246.35 111.08 250.1 111.08 251.31 107.44"/><polygon class="cls-6" points="238.65 107.44 239.78 111.08 243.61 111.08 240.9 113.33 242.11 117.44 238.84 115.2 235.29 117.35 236.69 113.52 233.69 111.08 237.43 111.08 238.65 107.44"/><polygon class="cls-6" points="225.88 107.44 227 111.08 230.83 111.08 228.12 113.33 229.34 117.44 226.06 115.2 222.51 117.35 223.91 113.52 220.92 111.08 224.66 111.08 225.88 107.44"/><polygon class="cls-6" points="213.01 107.44 214.13 111.08 217.97 111.08 215.25 113.33 216.47 117.44 213.2 115.2 209.65 117.35 211.05 113.52 208.06 111.08 211.79 111.08 213.01 107.44"/><polygon class="cls-6" points="231.61 96.67 232.73 100.32 236.56 100.32 233.85 102.56 235.06 106.68 231.79 104.43 228.24 106.59 229.64 102.75 226.64 100.32 230.39 100.32 231.61 96.67"/><line class="cls-14" x1="231.38" y1="87.6" x2="231.38" y2="95.08"/><line class="cls-14" x1="240.53" y1="90.3" x2="238.25" y2="98.41"/><line class="cls-14" x1="241.16" y1="107.55" x2="248.43" y2="94.46"/><line class="cls-14" x1="247.39" y1="107.76" x2="255.5" y2="99.03"/><line class="cls-14" x1="256.12" y1="109.21" x2="263.19" y2="104.22"/><line class="cls-14" x1="256.75" y1="117.32" x2="266.1" y2="113.17"/><line class="cls-14" x1="252.17" y1="128.13" x2="266.52" y2="130.62"/><line class="cls-14" x1="256.95" y1="136.03" x2="265.79" y2="140.29"/><line class="cls-14" x1="254.04" y1="142.06" x2="260.08" y2="147.67"/><line class="cls-14" x1="244.9" y1="141.64" x2="252.9" y2="151.93"/><line class="cls-14" x1="239.7" y1="143.31" x2="245.11" y2="156.4"/><line class="cls-14" x1="223.91" y1="142.89" x2="218.91" y2="157.02"/><line class="cls-14" x1="219.64" y1="140.6" x2="211.43" y2="152.04"/><line class="cls-14" x1="210.39" y1="142.47" x2="204.57" y2="148.29"/><line class="cls-14" x1="207.28" y1="136.03" x2="199.58" y2="139.77"/><line class="cls-14" x1="212.88" y1="127.72" x2="197.51" y2="130.62"/><line class="cls-14" x1="211.64" y1="122.93" x2="197.09" y2="122.93"/><line class="cls-14" x1="207.06" y1="116.91" x2="197.71" y2="114"/><line class="cls-14" x1="207.06" y1="109.84" x2="199.37" y2="104.64"/><line class="cls-14" x1="212.68" y1="105.27" x2="206.65" y2="98.62"/><line class="cls-14" x1="222.24" y1="107.97" x2="214.76" y2="94.25"/><line class="cls-14" x1="224.95" y1="99.13" x2="222.24" y2="91.13"/><line class="cls-14" x1="252.59" y1="123.35" x2="268.18" y2="122.31"/><polygon class="cls-6" points="231.41 118.7 232.53 122.35 236.36 122.35 233.65 124.59 234.87 128.71 231.6 126.47 228.04 128.62 229.44 124.79 226.45 122.35 230.19 122.35 231.41 118.7"/><path class="cls-15" d="M248.28,497c1.15-.92,4.44-2.8,4.44-2.8-2,1-4.78,2.5-6.24,4.78-1.31,2.06,0,2.08,1.87,2.08a15.4,15.4,0,0,0,8.11-2.91" transform="translate(-80.58 -180.67)"/><polyline class="cls-20" points="300.4 329.35 300.73 333.04 299.12 334.76 296.45 334.54 291 339.6 290.42 339.95 291.05 337.25 286.27 336.83 296.45 328.52 300.4 329.35 313.04 320.26"/><path class="cls-18" d="M177.82,462.26a2.25,2.25,0,1,0-2.25-2.25A2.25,2.25,0,0,0,177.82,462.26Z" transform="translate(-80.58 -180.67)"/><path class="cls-18" d="M177.82,460" transform="translate(-80.58 -180.67)"/><path class="cls-15" d="M180,461.38a7.88,7.88,0,0,1,4.58,3.53c1.24,2.07,3.74,5,4.15,5.82-1.66-1.24-7.27-6.44-11.22-7.27a15,15,0,0,0-3.31-.29" transform="translate(-80.58 -180.67)"/><path class="cls-15" d="M205.47,489.89c-3,1.84-4.63,5.73-5.34,8.91a7.12,7.12,0,0,1-2.79,3.44" transform="translate(-80.58 -180.67)"/><path class="cls-15" d="M183.83,485.29a21.21,21.21,0,0,1,4.66-2.29c2.7-.83,6.44-.63,8.94-.63-1.25-1.45-6.2-3.39-8.07-4.21" transform="translate(-80.58 -180.67)"/><path class="cls-17" d="M226.06,492.5c-1,1.69,4.74-1.79,4.34-4.48a2.13,2.13,0,0,0-3.56-1.48c-.49.7-.45.8-.2,2A8.62,8.62,0,0,1,226.06,492.5Z" transform="translate(-80.58 -180.67)"/><path class="cls-17" d="M395,489.51a5.63,5.63,0,0,0,2,2.4,22.82,22.82,0,0,1,.41-3.46l1.14-1.53a2.55,2.55,0,0,0-1.41-2.38c-1.93-.66-2.3.58-2.67,2.09Z" transform="translate(-80.58 -180.67)"/><line class="cls-15" x1="300.16" y1="329.59" x2="293.71" y2="334.76"/><line class="cls-15" x1="321.19" y1="331.22" x2="317.76" y2="346.27"/><line class="cls-15" x1="318.69" y1="329.76" x2="311.89" y2="347.31"/><line class="cls-15" x1="314.74" y1="325.4" x2="305.45" y2="341.09"/><line class="cls-15" x1="304.69" y1="335" x2="314.2" y2="324.41"/><path class="cls-15" d="M214.44,470.21a13.64,13.64,0,0,1-2.42,6.56" transform="translate(-80.58 -180.67)"/><path d="M227.3,336.26l0-.24a1.28,1.28,0,0,0,.57,0,.55.55,0,0,0,.35-.48l.84-4.38a.54.54,0,0,0-.16-.57,1.45,1.45,0,0,0-.52-.21l0-.24,5.2,1-.35,1.82-.23,0a2,2,0,0,0-.36-1.31,2.59,2.59,0,0,0-1.44-.61,1,1,0,0,0-.54,0,.43.43,0,0,0-.18.32l-.41,2.1a1.45,1.45,0,0,0,1.1-.07,2.18,2.18,0,0,0,.62-1l.23,0-.58,3-.23,0a2,2,0,0,0-.19-1.16,1.49,1.49,0,0,0-1-.52l-.42,2.19a.44.44,0,0,0,.07.42,1.18,1.18,0,0,0,.58.22,2.7,2.7,0,0,0,1.48-.06A2.84,2.84,0,0,0,233,335.4l.25,0-.73,1.81Z" transform="translate(-80.58 -180.67)"/><path d="M238.27,338.52a1,1,0,0,0,.65,0,1,1,0,0,0,.34-.57l1.22-3.87c.1-.33.12-.55,0-.67a1.19,1.19,0,0,0-.53-.36l.07-.23,2.83.89a3.45,3.45,0,0,1,1.6.9,1.42,1.42,0,0,1,.19,1.44,1.61,1.61,0,0,1-.49.74,1.67,1.67,0,0,1-.95.37,2.67,2.67,0,0,1-.86-.06c-.27-.07-.67-.18-1.19-.35l-.52,1.65a.93.93,0,0,0,0,.68,1,1,0,0,0,.55.36l-.07.23-2.92-.92Zm4.13-1.9q.5-.14.78-1a2.17,2.17,0,0,0,.11-1,.85.85,0,0,0-.66-.62.89.89,0,0,0-.4-.06.26.26,0,0,0-.19.21l-.75,2.37A2.38,2.38,0,0,0,242.4,336.63Z" transform="translate(-80.58 -180.67)"/><path d="M254.34,338.06l-.09.22a1.26,1.26,0,0,0-.72-.12c-.15,0-.29.23-.42.56l-1.17,2.85a2.85,2.85,0,0,0-.26,1.06,1.14,1.14,0,0,0,.8,1.1,1.43,1.43,0,0,0,1.62-.18,2.91,2.91,0,0,0,.65-1l1.07-2.6a1,1,0,0,0,.09-.7,1.11,1.11,0,0,0-.57-.48l.09-.22,1.86.77-.09.22a1.3,1.3,0,0,0-.61,0c-.12,0-.23.19-.35.46l-1.12,2.72a2.64,2.64,0,0,1-1.21,1.46A2.25,2.25,0,0,1,252,344a2.33,2.33,0,0,1-1.64-1.7,2.44,2.44,0,0,1,.21-1.32l1.17-2.85a1,1,0,0,0,.12-.65,1.17,1.17,0,0,0-.5-.41l.09-.22Z" transform="translate(-80.58 -180.67)"/><path d="M243.89,340.41a1.31,1.31,0,0,0,.53.09.56.56,0,0,0,.44-.42l1.54-4.18a.55.55,0,0,0-.06-.59,1.38,1.38,0,0,0-.47-.29l.08-.22,3,1.1-.08.23a1.44,1.44,0,0,0-.76-.11c-.15,0-.28.24-.41.58l-1.5,4.08a.43.43,0,0,0,0,.44,1.33,1.33,0,0,0,.55.31,2.5,2.5,0,0,0,1.44.14,2.89,2.89,0,0,0,1.41-1l.25.09-1.07,1.83-5-1.83Z" transform="translate(-80.58 -180.67)"/><path d="M255.53,345.18a1,1,0,0,0,.63.17c.15,0,.31-.19.48-.49l2.07-3.5a.87.87,0,0,0,.18-.7,1.24,1.24,0,0,0-.44-.43l.12-.21,2.55,1.51a4.76,4.76,0,0,1,1.19.93,1.42,1.42,0,0,1,.24,1.77,1.44,1.44,0,0,1-1,.75,2,2,0,0,1-.94-.08l.15,3.12a.37.37,0,0,0,.07.21.72.72,0,0,0,.17.15l-.12.21-1.61-1-.17-3.46-.22-.13-.92,1.56a1,1,0,0,0-.19.64c0,.15.19.31.46.49l-.12.21-2.66-1.57Zm4.73-.92c.31,0,.61-.25.9-.75a2,2,0,0,0,.3-.8,1,1,0,0,0-.55-.93.86.86,0,0,0-.47-.17.37.37,0,0,0-.25.2l-1.19,2A2.73,2.73,0,0,0,260.26,344.26Z" transform="translate(-80.58 -180.67)"/><path d="M262,349.13a1.39,1.39,0,0,0,.5.27.56.56,0,0,0,.55-.27l2.7-3.55a.54.54,0,0,0,.11-.59,1.53,1.53,0,0,0-.4-.43l.14-.19,2.57,1.95-.14.19a1.66,1.66,0,0,0-.53-.28.54.54,0,0,0-.54.27l-2.7,3.55a.54.54,0,0,0-.14.54,1.27,1.27,0,0,0,.44.49l-.14.19-2.57-2Z" transform="translate(-80.58 -180.67)"/><path d="M265.64,351.68a1.28,1.28,0,0,0,.48.25.55.55,0,0,0,.54-.26l2.75-3.52a.55.55,0,0,0,.13-.58,1.38,1.38,0,0,0-.36-.42l.14-.19,2.24,1.75a4.19,4.19,0,0,1,1,1,1.31,1.31,0,0,1,0,1.65,1.08,1.08,0,0,1-.88.45,2,2,0,0,1-1-.22l-.05.07a2.6,2.6,0,0,1,.49.81,1.46,1.46,0,0,1-1.53,2,3.3,3.3,0,0,1-1.77-.78l-2.33-1.82Zm2,1.23a.46.46,0,0,0,.22.43,1.08,1.08,0,0,0,.94.29,1.64,1.64,0,0,0,.83-.63,1.36,1.36,0,0,0,.34-1.39,2.31,2.31,0,0,0-.76-.83l-1.41,1.81A.72.72,0,0,0,267.64,352.91Zm2.83-1.86a1.33,1.33,0,0,0,.84-.6,1.83,1.83,0,0,0,.39-.81.77.77,0,0,0-.36-.74.63.63,0,0,0-.38-.17.44.44,0,0,0-.3.2l-1.27,1.62A1.76,1.76,0,0,0,270.47,351.05Z" transform="translate(-80.58 -180.67)"/><path d="M276.5,353l-.16.18a1.26,1.26,0,0,0-.64-.36c-.15,0-.35.12-.59.38L273,355.47a2.71,2.71,0,0,0-.61.91,1.13,1.13,0,0,0,.37,1.3,1.43,1.43,0,0,0,1.58.39,2.82,2.82,0,0,0,1-.75l1.91-2.07a1,1,0,0,0,.33-.62,1.14,1.14,0,0,0-.37-.65l.16-.18,1.48,1.36-.16.18a1.32,1.32,0,0,0-.57-.24c-.13,0-.29.1-.49.32l-2,2.17a2.65,2.65,0,0,1-1.64,1,2.26,2.26,0,0,1-1.74-.73,2.34,2.34,0,0,1-1-2.17,2.46,2.46,0,0,1,.65-1.17l2.09-2.27c.23-.25.35-.44.34-.57a1.16,1.16,0,0,0-.33-.56l.16-.18Z" transform="translate(-80.58 -180.67)"/><path d="M277,359.45l.17.2a2.89,2.89,0,0,0-.68,1.52,1.57,1.57,0,0,0,.37,1.15,1.06,1.06,0,0,0,.81.45,1.07,1.07,0,0,0,.68-.25.89.89,0,0,0,.34-.64,3.27,3.27,0,0,0-.13-.84l-.15-.64a3.84,3.84,0,0,1-.14-1.5,1.62,1.62,0,0,1,.58-1,2,2,0,0,1,1.27-.46,1.78,1.78,0,0,1,1.39.73,3,3,0,0,1,.51.83,4,4,0,0,0,.23.5.24.24,0,0,0,.2.1.74.74,0,0,0,.23-.07l.18.21-1.52,1.3-.16-.19a2.78,2.78,0,0,0,.5-1.26,1.43,1.43,0,0,0-.34-1.17,1,1,0,0,0-.66-.38.82.82,0,0,0-.64.2.82.82,0,0,0-.33.61,5.65,5.65,0,0,0,.22,1.25l.18.74a2.76,2.76,0,0,1,.09.88,1.76,1.76,0,0,1-.63,1.21,2,2,0,0,1-1.35.44,2.19,2.19,0,0,1-1.59-.91,3.24,3.24,0,0,1-.32-.45,3.2,3.2,0,0,1-.24-.52l-.07-.18-.06-.11-.06-.08a.21.21,0,0,0-.19-.1.75.75,0,0,0-.23.08l-.17-.2Z" transform="translate(-80.58 -180.67)"/><path d="M349.71,350.8l.15.19a1.22,1.22,0,0,0-.44.58c0,.15.06.36.29.64l2,2.38a2.7,2.7,0,0,0,.81.73,1.14,1.14,0,0,0,1.35-.18,1.44,1.44,0,0,0,.6-1.52,2.87,2.87,0,0,0-.6-1.07L352,350.38a1,1,0,0,0-.57-.41,1.14,1.14,0,0,0-.7.27l-.15-.19,1.56-1.27.15.19a1.38,1.38,0,0,0-.31.53.79.79,0,0,0,.25.53l1.87,2.28a2.64,2.64,0,0,1,.71,1.76,2.26,2.26,0,0,1-1,1.62,2.34,2.34,0,0,1-2.28.64,2.48,2.48,0,0,1-1.07-.81l-2-2.38c-.22-.27-.39-.41-.52-.42a1.15,1.15,0,0,0-.6.25l-.15-.19Z" transform="translate(-80.58 -180.67)"/><path d="M358.1,351.54c.28-.19.43-.36.45-.52a.86.86,0,0,0-.17-.53L356,346.84c-.41-.11-.65-.17-.74-.19a.51.51,0,0,0-.28.05l-.13-.2,1.63-1,4.77,1.53,0,0-1.47-2.29a.75.75,0,0,0-1.2-.3l-.13-.2,1.66-1.07.13.2a1.27,1.27,0,0,0-.38.47c0,.12,0,.3.17.53l2.94,4.57-.21.14-6.09-2-.06,0,2,3a1.11,1.11,0,0,0,.42.44.88.88,0,0,0,.79-.15l.13.2-1.73,1.11Z" transform="translate(-80.58 -180.67)"/><path d="M365.68,339.49l.12.21a1.25,1.25,0,0,0-.54.5c-.06.14,0,.37.18.67l1.54,2.67a2.72,2.72,0,0,0,.69.85,1.14,1.14,0,0,0,1.35,0,1.43,1.43,0,0,0,.84-1.4,2.86,2.86,0,0,0-.43-1.15L368,339.45a1,1,0,0,0-.5-.5,1.13,1.13,0,0,0-.73.16l-.12-.21,1.75-1,.12.21a1.36,1.36,0,0,0-.4.47.79.79,0,0,0,.16.56l1.47,2.55a2.62,2.62,0,0,1,.42,1.85A2.25,2.25,0,0,1,369,345a2.35,2.35,0,0,1-2.35.26,2.42,2.42,0,0,1-.92-1l-1.54-2.66c-.17-.3-.32-.47-.44-.5a1.17,1.17,0,0,0-.63.15l-.12-.21Z" transform="translate(-80.58 -180.67)"/><path d="M373.8,342c.33-.14.51-.29.56-.44a.81.81,0,0,0-.07-.57l-1.72-4c-.1-.23-.22-.35-.36-.38a1.41,1.41,0,0,0-.64.11l-.1-.22,2.12-.91,3.34,3.2.07,0,0-4.62,2.13-.91.09.22a1.19,1.19,0,0,0-.51.41c-.07.13,0,.35.11.68l1.6,3.73c.14.31.28.49.42.54a1,1,0,0,0,.65-.09l.09.22-2.8,1.21-.09-.22a1.37,1.37,0,0,0,.52-.37.57.57,0,0,0,0-.57l-1.78-4.13-.06,0,.07,5.85-.24.1-4.16-4h0l1.64,3.81a.76.76,0,0,0,1.21.47l.09.22-2,.86Z" transform="translate(-80.58 -180.67)"/><path class="cls-22" d="M271.71,279.24c-2.91-7.22,2.72-13.75,10.77-11.52-1.45-5.86,6-13.23,13.58-7.47,1.16-6.46,10-10.12,15.39-2.71,3.3-6.41,14.42-6.06,15.33,2.76,2.88-3.83,15.23-3.81,13.93,7.51,3.71-3,15.33,1,10.82,11.33,8-.9,12.23,8.32,6.56,14.38,5.21.9,10.37,10.47,1.3,15.83,7.57,6.76,2.16,14.68-3.66,15.38,4.2,8.22-2,14-9,13.23,1,7.92-5.41,13.13-12.68,9.42-.85,7.91-9.12,10.42-14.78,5.11-3.91,7.52-12.68,6.56-15.68-.45A8.41,8.41,0,0,1,288.69,347c-6.11,3.05-14.08-.85-12.18-10-7.46,1.1-12.52-6-8.56-12.93-6.07-1-10.47-9.12-3.51-15.08-5.86-2.86-7.07-12,1-15.58C260.54,287.56,263.89,279.54,271.71,279.24Z" transform="translate(-80.58 -180.67)"/><path class="cls-23" d="M312.24,427.74" transform="translate(-80.58 -180.67)"/><rect class="cls-23" x="197.83" y="233.95" width="67.67" height="26.24"/><rect class="cls-24" x="203.13" y="260.19" width="5.29" height="49.95"/><path class="cls-24" d="M286.35,465.83" transform="translate(-80.58 -180.67)"/><rect class="cls-24" x="213.71" y="260.19" width="5.29" height="49.95"/><path class="cls-24" d="M296.94,465.83" transform="translate(-80.58 -180.67)"/><rect class="cls-24" x="224.07" y="260.19" width="5.29" height="49.95"/><path class="cls-24" d="M307.29,465.83" transform="translate(-80.58 -180.67)"/><rect class="cls-24" x="234.89" y="260.19" width="5.29" height="49.95"/><path class="cls-24" d="M318.11,465.83" transform="translate(-80.58 -180.67)"/><rect class="cls-24" x="245.02" y="260.19" width="5.29" height="49.95"/><path class="cls-24" d="M328.24,465.83" transform="translate(-80.58 -180.67)"/><rect class="cls-24" x="255.14" y="260.42" width="5.29" height="49.95"/><path class="cls-24" d="M338.36,466.06" transform="translate(-80.58 -180.67)"/><path d="M309.5,403.42" transform="translate(-80.58 -180.67)"/><path class="cls-25" d="M345.95,414.71l.1,71.19c0,3-1.14,5-4.78,5-2.5.21-25.36,0-25.36,0-3,0-2.08,1.35-3.32,2.81-.83-1.46-.42-2.81-3.33-2.81H283.9c-3.64.12-5-1.5-5.66-4.21,0-2.39-.05-72-.05-72Z" transform="translate(-80.58 -180.67)"/><path class="cls-12" d="M288.56,372" transform="translate(-80.58 -180.67)"/><path class="cls-12" d="M288.56,372" transform="translate(-80.58 -180.67)"/><circle class="cls-26" cx="224.98" cy="226.21" r="219.36"/><path class="cls-26" d="M305.55,406.89" transform="translate(-80.58 -180.67)"/><path class="cls-27" d="M137.44,335c1.35-2.69,1-3.41-1.37-4.78l-15.24-8.68c-2.54-1.45-3.1-1.27-4.81,1.26l-.65-.37,5.28-9.27c4.69-8.24,11.54-11.56,19.23-7.19,4.57,2.6,9.75,9.14,3.77,19.65l-5.55,9.75Zm1.69-7.67c1.17.66,1.64.39,2.58-1.26,1.25-2.2,6.06-10.64-3.93-16.33a11.51,11.51,0,0,0-9.61-1.25c-2.42.81-4.44,2.2-6.9,6.53-.92,1.61-.27,2,.42,2.38Z" transform="translate(-80.58 -180.67)"/><path class="cls-27" d="M164.76,294.64l-13,16.94-.6-.46c1.41-2.1,1.68-3-.73-4.89l-13.93-10.66c-2.48-1.9-3.24-1.29-4.91.57l-.6-.46L143.78,279l4.56,3.34-.6.78c-3.15-1.67-4.28-1.23-6.94,2.25l-3.24,4.24c-.5.66-.79,1,.27,1.85l7,5.33,3.7-4.83c2.14-2.79,1.62-3.68-.34-5.73l.55-.72L156,291.1l-.55.72c-2.8-1.54-3.6-1.41-5.62,1.17L146,297.78l7.78,6c1.28,1,1.32,1,4.89-3.67,3-3.92,3.26-6.21,1.15-10l.67-.88Z" transform="translate(-80.58 -180.67)"/><path class="cls-27" d="M147.4,274.75l7.27-7.48c3.8-3.91,8.72-6,12.31-2.47a6.94,6.94,0,0,1,2.14,5.44c0,2.35-1.27,4.66-4.16,7.63-.66.68-1.21,1.19-1.93,1.82l5.16,5c2.07,2,3,1.94,5.14-.19l.54.52L166.15,293l-.54-.52c2.14-2.54,1.49-3.18-.55-5.16L152.8,275.37c-2-2-2.65-2-4.86-.1Zm14.5,3.84a22.87,22.87,0,0,0,1.74-1.62c1-1,4.71-4.85.4-9-4.05-3.94-8.13.14-9.34,1.39-.83.85-1.1,1.19-.17,2.1Z" transform="translate(-80.58 -180.67)"/><path class="cls-27" d="M199.23,262.76l-7.78,6.4-.48-.58c1.13-.93,2.11-1.79,1.18-2.92a9,9,0,0,0-2.16-1.45l-3.66-1.9-8,6.58,1.54,4.72a4.42,4.42,0,0,0,.71,1.36c1.05,1.28,2.49.1,3.13-.43l.48.58-6,5-.48-.58a2.67,2.67,0,0,0,1-2c.07-1.34-.81-4.34-1.34-6.16l-6-20.2.61-.5,21.86,11.07c2.81,1.42,3.51,1.41,4.93.39Zm-14.35-1.33L174.44,256l3.4,11.27Z" transform="translate(-80.58 -180.67)"/><path class="cls-27" d="M221.21,249.4l-5.43,3.31-14.36-5.49-1.85,1.22,4.05,6.64c1.38,2.26,2.11,2.69,4.89,1.18l.39.64-9.34,5.7-.39-.64c2.63-1.84,2.33-2.63.79-5.16L191,242.22c-1.52-2.5-2.21-2.49-4.72-1.29l-.39-.64,9.31-5.68c3-1.83,9-4.52,12.17.67,2.76,4.52-1.13,8-2.64,9.39L216.92,249a4.38,4.38,0,0,0,3.9-.21Zm-22.4-2.2c2.81-1.76,7.83-4.92,4.89-9.74-2.74-4.48-7.22-1.89-8.6-1-1.79,1.09-1.95,1.51-1.35,2.49Z" transform="translate(-80.58 -180.67)"/><path class="cls-27" d="M235,243.33l-10.49,4.81-.31-.68c3.2-1.64,2.93-2.52,1.71-5.18l-8.23-18-1.94.89c-3.95,1.81-4.61,2.94-3.6,7.21l-.86.39-2.58-6.2,20.25-9.28,3,6-.86.4c-2.57-3.6-3.87-3.79-7.82-2l-1.94.89L229.72,241c1.12,2.44,1.86,2.93,4.93,1.65Z" transform="translate(-80.58 -180.67)"/><path class="cls-27" d="M265.46,206.93c-2.34.87-3.19,1.36-2.34,4.36l4.78,16.87c.83,2.93,1.8,3,4.27,2.48l.2.72-10.64,3-.2-.72c2.92-1,3.25-1.7,2.37-4.82l-4.84-17.06-.08,0-3.52,24.36-.53.15L239.6,218.24l-.08,0,4.3,15.16c1.11,3.91,2.14,4.52,5,3.85l.2.72L240,240.53l-.2-.72c2.83-1,3.47-1.81,2.31-5.91l-4.37-15.43c-.84-3-1.72-3-4.58-2.4l-.2-.72,7.53-2.13,14.22,16.7,3-21.57,7.56-2.14Z" transform="translate(-80.58 -180.67)"/><path class="cls-27" d="M294.06,229l-21.17,2.62-.09-.75c2.49-.47,3.35-.93,3-4l-2.16-17.41c-.38-3.1-1.35-3.22-3.85-3.11l-.09-.74,20.82-2.58.81,5.59-1,.12c-1-3.42-2.12-3.92-6.47-3.38l-5.29.66c-.82.1-1.29.16-1.13,1.49l1.08,8.7,6-.75c3.49-.43,3.76-1.42,3.85-4.26l.9-.11,1.13,9.09-.9.11c-.86-3.08-1.52-3.55-4.77-3.19l-6,.67,1.21,9.72c.2,1.61.2,1.65,6,.92,4.9-.61,6.71-2,7.95-6.2l1.1-.14Z" transform="translate(-80.58 -180.67)"/><path class="cls-27" d="M323.75,203.56c-2.49.25-3.76.39-3.81,5l-.24,20.78H319l-17.14-21.84h-.08l-.17,15.41c0,4.07.77,4.95,3.66,5.1v.75l-9.28-.1v-.75c3-.16,3.84-.75,3.89-5l.2-17.42c-1.6-2-2.23-2.2-3.81-2.21v-.75l6.75.07L318,221.75H318l.15-13.19c.05-4.54-1.05-4.87-3.73-5.1v-.75l9.28.1Z" transform="translate(-80.58 -180.67)"/><path class="cls-27" d="M340.81,231.63,329.4,230l.11-.74c3.58.36,3.83-.52,4.25-3.41l2.87-19.54-2.11-.31c-4.3-.63-5.46,0-6.95,4.09l-.94-.14,1.21-6.61,22,3.24-.74,6.68-.94-.14c-.19-4.42-1.18-5.28-5.48-5.92l-2.11-.31-2.93,20c-.39,2.66,0,3.47,3.24,4.07Z" transform="translate(-80.58 -180.67)"/><path class="cls-27" d="M360.34,222.33c2.94-8.59,10.52-10.85,16.65-8.75s10.74,8.52,7.79,17.11c-2.73,8-9.86,11-16.62,8.67S357.61,230.29,360.34,222.33Zm20.19,6.87c2.91-8.52-.2-13-4-14.27s-9,.3-11.91,8.82c-2.82,8.22-.14,12.85,4,14.27S377.71,237.42,380.53,229.2Z" transform="translate(-80.58 -180.67)"/><path class="cls-27" d="M401.12,243.16c1.08-3.17.41-3.94-2.21-5.33l-5.13-2.54L390,243c-1.32,2.65-.82,3.43,1.64,4.78l-.33.67-9.91-4.92.33-.67c2.73,1.17,3.42.86,4.85-2l7.61-15.32c1.38-2.8.64-3.43-1.5-4.71l.33-.67,18.79,9.32-2.41,5.11-.88-.44c1-3.41.39-4.43-3.53-6.38l-4.82-2.39c-.88-.44-1.2-.42-1.73.64l-3.9,7.86,5.13,2.55c2.9,1.44,3.89,1,5.56-1.43l.81.4-4.07,8.21Z" transform="translate(-80.58 -180.67)"/><path class="cls-27" d="M433.86,253.63l-.8-.58c1.35-3,1.38-7.38-2-9.81a3.71,3.71,0,0,0-5.38.65c-3.46,4.81,6.77,13.16,2,19.73-2,2.72-6.36,4.23-10.94.92-2.43-1.76-3.22-4-4.18-4.67a1.22,1.22,0,0,0-1.76.34l-.71-.51,3.94-7.49.74.53c-.48,1.94-1.85,7.29,2.48,10.41a4.42,4.42,0,0,0,6.41-.79c1.32-1.83,1.59-3.28-1.13-9.44-1.72-3.82-2.76-6.71-.47-9.88,2.63-3.65,6.84-3.35,9.73-1.27,1.92,1.39,2.87,3.72,3.67,4.3a1.37,1.37,0,0,0,1.91-.28l.67.48Z" transform="translate(-80.58 -180.67)"/><path class="cls-27" d="M438.53,282l-8.49-7.8.51-.55c2.75,2.31,3.46,1.73,5.43-.43l13.36-14.55-1.57-1.44c-3.2-2.94-4.49-3.11-8-.53l-.7-.64,4.72-4.79,16.41,15.07-4.37,5.11-.7-.64c2.33-3.76,2-5-1.21-8l-1.57-1.44-13.65,14.87c-1.82,2-2,2.85.39,5.18Z" transform="translate(-80.58 -180.67)"/><path class="cls-27" d="M458.69,304.52l-6.56-7.64.57-.49c1,1.11,1.83,2.07,2.94,1.12a9.14,9.14,0,0,0,1.4-2.19l1.82-3.7-6.74-7.85-4.69,1.63a4.44,4.44,0,0,0-1.35.74c-1.26,1.08,0,2.49.49,3.12l-.57.49-5.09-5.94.57-.49a2.67,2.67,0,0,0,2,1c1.34,0,4.33-.9,6.14-1.46l20.07-6.4.51.6-10.62,22.08c-1.36,2.84-1.33,3.54-.29,4.94Zm1-14.37L465,279.59l-11.2,3.63Z" transform="translate(-80.58 -180.67)"/><path class="cls-27" d="M465.92,315.78l-6.48-9.54.62-.42c2.15,2.88,3,2.47,5.38.83l16.34-11.09-1.2-1.76c-2.44-3.6-3.66-4.06-7.71-2.36l-.54-.78,5.69-3.58,12.51,18.43-5.42,4-.53-.79c3.13-3.13,3.09-4.44.65-8l-1.2-1.76-16.7,11.34c-2.22,1.51-2.58,2.32-.81,5.13Z" transform="translate(-80.58 -180.67)"/><path class="cls-27" d="M478.94,339.67l-9.7-19,.67-.34c1.29,2.18,2,2.83,4.73,1.44l15.62-8c2.78-1.42,2.56-2.37,1.6-4.68l.67-.34,9.54,18.68-5,2.67-.45-.88c2.86-2.13,3-3.33,1-7.23l-2.43-4.75c-.38-.74-.59-1.16-1.79-.55l-7.81,4,2.77,5.42c1.6,3.13,2.62,3.05,5.32,2.16l.41.81-8.16,4.17-.41-.81c2.6-1.86,2.82-2.64,1.37-5.58l-2.7-5.45-8.72,4.46c-1.44.74-1.48.75,1.2,6,2.25,4.4,4.2,5.62,8.54,5.35l.5,1Z" transform="translate(-80.58 -180.67)"/><path class="cls-27" d="M133,445.26c-.64-3-1.3-3.59-5.42-3.15l-10.25,1.1c-3.14.34-10.53,1.13-11.62-9-1-9.74,6.62-10.56,9-10.81L126.94,422c2.91-.31,3.28-.91,3.16-3.91l.75-.08L132,429.16l-.75.08c-.57-3.08-1.13-3.49-3.92-3.19l-12.57,1.34c-2.51.27-8,.85-7.24,7.69.33,3.06,1.82,5.17,3.79,6.11.92.42,2.26.67,5.44.33l10.6-1.13c4.2-.45,4.77-1.46,4.63-4.23l.75-.08,1,9.11Z" transform="translate(-80.58 -180.67)"/><path class="cls-27" d="M140.3,472.45c-.92-2.33-1.4-3.51-5.86-2.3l-20.05,5.44-.18-.65,16.34-22.44,0-.08-14.87,4c-3.93,1.07-4.55,2.09-3.91,4.91l-.72.2-2.43-9,.72-.2c1,2.85,1.77,3.49,5.88,2.37L132,450.22c1.48-2.08,1.51-2.74,1.09-4.26l.72-.2,1.77,6.52-14.38,19.58,0,.08L134,468.47c4.38-1.19,4.4-2.34,3.89-5l.72-.2,2.43,9Z" transform="translate(-80.58 -180.67)"/><path class="cls-27" d="M118.2,482.51c1.32,3.08,2.13,3.28,4.73,2.23l16.28-6.54c2.71-1.09,2.95-1.78,1.87-4.88l.7-.28,4.37,10.89-.7.28c-1.18-2.63-1.81-3.45-4.74-2.27l-16.28,6.54c-2.86,1.15-2.87,2.17-1.86,4.92l-.7.28-4.37-10.89Z" transform="translate(-80.58 -180.67)"/><path class="cls-27" d="M131.3,512.55l-5.39-10.2.66-.35c1.82,3.1,2.68,2.78,5.26,1.42l17.46-9.23-1-1.89c-2-3.84-3.19-4.43-7.41-3.19l-.44-.84,6-2.93L156.91,505l-5.83,3.35-.44-.84c3.45-2.76,3.56-4.07,1.53-7.92l-1-1.88-17.84,9.44c-2.37,1.26-2.82,2-1.37,5Z" transform="translate(-80.58 -180.67)"/><path class="cls-27" d="M148.55,538.49l-12.4-17.35.61-.43c1.6,2,2.42,2.49,4.89.73l14.27-10.2c2.54-1.81,2.18-2.72.89-4.86l.61-.44L169.62,523l-4.53,3.38-.57-.8c2.51-2.53,2.43-3.73-.12-7.3l-3.1-4.34c-.48-.67-.76-1.06-1.85-.28l-7.13,5.1,3.54,5c2,2.86,3,2.63,5.58,1.35l.53.74-7.46,5.33-.53-.74c2.3-2.22,2.4-3,.53-5.72l-3.47-5-8,5.7c-1.32.94-1.35,1,2.07,5.75,2.87,4,5,4.94,9.24,4l.64.9Z" transform="translate(-80.58 -180.67)"/><path class="cls-27" d="M152.9,543c2.19,2.05,3,2,5,0l12.64-12.16c2.11-2,2.09-2.61.15-5l.54-.52,7.39,7.69c6.57,6.83,7.82,14.34,1.44,20.48-3.79,3.64-11.53,6.76-19.91-2l-7.78-8.09Zm6.88,3.79c-1,.93-.84,1.46.48,2.83,1.75,1.82,8.49,8.83,16.77.86a11.51,11.51,0,0,0,3.92-8.87c-.09-2.54-.85-4.88-4.3-8.46-1.29-1.34-1.83-.82-2.4-.27Z" transform="translate(-80.58 -180.67)"/><path class="cls-27" d="M208.9,568.63l-.81-.56c1.3-3,1.26-7.4-2.14-9.78a3.71,3.71,0,0,0-5.37.73c-3.39,4.86,7,13.05,2.36,19.7-1.92,2.76-6.29,4.33-10.93,1.1-2.46-1.72-3.28-3.93-4.26-4.6a1.23,1.23,0,0,0-1.75.37l-.71-.5,3.81-7.55.75.52c-.45,2-1.73,7.32,2.65,10.37a4.42,4.42,0,0,0,6.4-.89c1.29-1.85,1.54-3.31-1.29-9.42-1.78-3.79-2.87-6.67-.63-9.87,2.57-3.7,6.79-3.46,9.71-1.42,1.94,1.35,2.93,3.68,3.74,4.24a1.37,1.37,0,0,0,1.9-.31l.68.48Z" transform="translate(-80.58 -180.67)"/><path class="cls-27" d="M219.63,595.47l-10.23-5.33.35-.67c3.26,1.52,3.79.77,5.14-1.82L224,570.13l-1.89-1c-3.85-2-5.15-1.83-7.91,1.58l-.84-.44,3.31-5.85,19.76,10.29-2.89,6.07-.84-.44c1.27-4.23.62-5.38-3.24-7.38l-1.89-1-9.33,17.9c-1.24,2.38-1.17,3.27,1.72,4.91Z" transform="translate(-80.58 -180.67)"/><path class="cls-27" d="M251.24,608l-9.46-3.46.26-.71c1.37.5,2.61.91,3.11-.46a9.08,9.08,0,0,0,.15-2.6l-.22-4.12-9.72-3.55-3.29,3.72a4.43,4.43,0,0,0-.81,1.3c-.57,1.56,1.17,2.2,2,2.48l-.26.71-7.35-2.69.26-.71a2.67,2.67,0,0,0,2.19-.13c1.19-.61,3.33-2.9,4.63-4.28l14.38-15.4.74.27,1.53,24.45c.2,3.14.57,3.74,2.16,4.45Zm-6.12-13-.57-11.78-8,8.64Z" transform="translate(-80.58 -180.67)"/><path class="cls-27" d="M267.87,611.74l-11.24-2.6.17-.73c3.54.66,3.86-.2,4.52-3.05l4.45-19.24-2.08-.48c-4.23-1-5.44-.49-7.26,3.51l-.92-.21,1.75-6.49,21.71,5-1.28,6.59-.92-.21c.17-4.42-.75-5.36-5-6.34L269.7,587l-4.55,19.66c-.6,2.62-.31,3.46,2.89,4.32Z" transform="translate(-80.58 -180.67)"/><path class="cls-27" d="M298.79,615.68l-21.24-2,.07-.75c2.53.08,3.47-.19,3.75-3.22L283,592.26c.29-3.11-.63-3.43-3.09-3.86l.07-.75,20.88,1.95-.41,5.64-1-.09c-.26-3.55-1.23-4.28-5.59-4.69l-5.31-.5c-.83-.08-1.3-.12-1.42,1.22l-.81,8.73,6.06.57c3.5.32,4-.58,4.68-3.33l.9.09-.85,9.12-.9-.08c-.18-3.19-.72-3.8-4-4.14l-6-.64-.91,9.75c-.15,1.62-.15,1.65,5.71,2.2,4.92.46,7-.54,9.09-4.35l1.1.1Z" transform="translate(-80.58 -180.67)"/><path class="cls-27" d="M322,597l-1,0c-.78-3.21-3.42-6.69-7.57-6.55a3.71,3.71,0,0,0-3.86,3.81c.2,5.92,13.41,6.27,13.68,14.36.11,3.36-2.45,7.24-8.09,7.42-3,.1-5-1.18-6.17-1.14a1.23,1.23,0,0,0-1.18,1.35l-.87,0L305.48,608l.91,0c.81,1.83,3,6.9,8.33,6.72a4.41,4.41,0,0,0,4.59-4.54c-.07-2.25-.75-3.57-6.67-6.77-3.7-2-6.29-3.62-6.41-7.53-.15-4.5,3.37-6.83,6.92-6.95,2.37-.08,4.55,1.19,5.53,1.16a1.37,1.37,0,0,0,1.34-1.39l.83,0Z" transform="translate(-80.58 -180.67)"/><path class="cls-27" d="M339.22,600.55c-2.08-8.85,3.14-14.78,9.45-16.26s13.63,1.51,15.7,10.35c1.92,8.19-2.5,14.55-9.47,16.18S341.14,608.74,339.22,600.55ZM360,595.63c-2.06-8.77-7.06-10.88-11-10s-7.46,5-5.4,13.81c2,8.46,6.71,11,11,10S362,604.09,360,595.63Z" transform="translate(-80.58 -180.67)"/><path class="cls-27" d="M385.14,590.8c-1.61-2.93-2.63-3-5.42-2l-5.34,2.08,3.13,8c1.08,2.76,2,2.91,4.64,2l.27.7-10.3,4-.28-.7c2.71-1.22,2.93-1.95,1.76-5l-6.21-15.93c-1.13-2.91-2.1-2.79-4.49-2.07l-.27-.7,19.54-7.62,2.16,5.22-.92.36c-1.83-3.06-3-3.28-7.1-1.68l-5,2c-.92.36-1.12.61-.69,1.71l3.18,8.17,5.34-2.08c3-1.18,3.39-2.17,2.69-5.07l.84-.33,3.33,8.54Z" transform="translate(-80.58 -180.67)"/><path class="cls-27" d="M427.16,577.72l-8.54,5.34-.4-.64c1.24-.77,2.32-1.5,1.55-2.74a9.11,9.11,0,0,0-2-1.71l-3.38-2.36-8.78,5.48.91,4.88a4.43,4.43,0,0,0,.53,1.44c.88,1.41,2.46.42,3.16,0l.4.64L404,592.18l-.4-.64a2.65,2.65,0,0,0,1.25-1.8c.25-1.32-.24-4.41-.53-6.29L401,562.65l.67-.42,20.23,13.82c2.6,1.78,3.3,1.85,4.84,1Zm-14.06-3.19-9.64-6.79,1.9,11.62Z" transform="translate(-80.58 -180.67)"/><path class="cls-27" d="M439.33,533.56c-1.71,1.81-2.26,2.62-.17,4.94l11.74,13c2,2.26,2.95,1.92,4.93.34l.5.56-8.22,7.4-.5-.56c2.18-2.18,2.17-3,0-5.37l-11.87-13.18-.06.05,7.59,23.42-.41.37-21.75-9.44-.06.06,10.55,11.71c2.72,3,3.92,3.11,6.15,1.27l.5.56-6.9,6.21-.5-.55c2.1-2.16,2.32-3.15-.54-6.32l-10.74-11.91c-2.06-2.29-2.89-2-5.17-.13l-.5-.56,5.81-5.24,20.13,8.71L433,538.27l5.84-5.26Z" transform="translate(-80.58 -180.67)"/><path class="cls-27" d="M472.89,531.77l-13.33,16.66L459,548c1.46-2.07,1.74-3-.63-4.9l-13.7-11c-2.44-1.95-3.21-1.36-4.92.46l-.59-.47,13.11-16.38,4.49,3.44-.62.77c-3.12-1.73-4.25-1.33-7,2.1l-3.33,4.16c-.52.65-.82,1,.23,1.86l6.85,5.48,3.8-4.75c2.19-2.75,1.7-3.65-.22-5.74l.57-.71,7.15,5.72-.57.71c-2.76-1.6-3.56-1.49-5.64,1l-3.86,4.7,7.65,6.12c1.27,1,1.3,1,5-3.56,3.08-3.86,3.39-6.14,1.37-10l.69-.86Z" transform="translate(-80.58 -180.67)"/><path class="cls-27" d="M489.52,504.95l-3.24,5.47L471,512.3,470,514.24l6.7,4c2.28,1.35,3.12,1.39,4.87-1.25l.65.38-5.58,9.41-.65-.38c1.46-2.85.83-3.41-1.72-4.92l-14.71-8.72c-2.52-1.49-3.12-1.16-4.77,1.08l-.65-.38,5.56-9.38c1.79-3,5.83-8.21,11.06-5.11,4.55,2.7,2.75,7.6,2.06,9.54l12.75-1.91a4.37,4.37,0,0,0,3.35-2ZM468.7,513.5c1.66-2.87,4.61-8-.25-10.89-4.52-2.68-7.26,1.72-8.09,3.11-1.07,1.8-1,2.25,0,2.83Z" transform="translate(-80.58 -180.67)"/><path class="cls-27" d="M490.18,501.21c1.31-3.09.89-3.8-1.66-5l-16-7.22c-2.66-1.2-3.33-.9-4.82,2l-.69-.31,4.83-10.69.68.31c-1.08,2.68-1.23,3.69,1.64,5l16,7.22c2.81,1.27,3.56.57,4.83-2.06l.68.31-4.83,10.69Z" transform="translate(-80.58 -180.67)"/><path class="cls-27" d="M487.63,459.89c-4.25-.34-8.14,1.39-9.63,6a8.72,8.72,0,0,0,.47,6.38c1,1.93,2.82,4.36,8.23,6.12,8,2.58,12.69-.83,14.22-5.57a12.37,12.37,0,0,0-1-9.72l.9-.46a13.13,13.13,0,0,1,1.47,11.73c-2,6-7.68,11.38-17,8.35-8.42-2.73-10.92-10.51-8.82-17,1.08-3.34,3.12-5.38,3.39-6.21a1.76,1.76,0,0,0-.68-2.13l.26-.79,8.57,2.41Z" transform="translate(-80.58 -180.67)"/><path class="cls-27" d="M510.78,431.84l-1.61,9.95-.74-.12c.23-1.44.4-2.74-1-3a9,9,0,0,0-2.58.34l-4,1-1.65,10.22,4.27,2.53a4.45,4.45,0,0,0,1.43.55c1.64.26,1.93-1.57,2.07-2.39l.74.12-1.25,7.72-.74-.12a2.66,2.66,0,0,0-.54-2.13c-.83-1.05-3.48-2.72-5.08-3.74l-17.83-11.21.13-.78,23.72-6.12c3.05-.79,3.57-1.26,4-3Zm-11.66,8.48-11.46,2.79,10,6.22Z" transform="translate(-80.58 -180.67)"/></svg>