<?xml version="1.0" encoding="iso-8859-1"?>
<!-- Generator: Adobe Illustrator 18.1.1, SVG Export Plug-In . SVG Version: 6.00 Build 0)  -->
<svg version="1.1" id="Capa_1" xmlns="http://www.w3.org/2000/svg" xmlns:xlink="http://www.w3.org/1999/xlink" x="0px" y="0px"
	 viewBox="0 0 19.502 19.502" style="enable-background:new 0 0 19.502 19.502;" xml:space="preserve">
<g>
	<path style="fill:#030104;" d="M13.272,8.936V8.051h0.539V7.664l-0.539-0.21V6.989h-1.084L9.835,5.981v-1.73H9.619v0.234
		C9.576,4.52,9.52,4.551,9.448,4.56C9.285,4.576,9.122,4.585,9,4.76l0.044,0.412c0,0,0.163-0.184,0.29-0.2
		c0.102-0.015,0.181,0.015,0.285-0.044v1.06L7.31,6.989H6.247v0.462l-0.54,0.214v0.399h0.54v0.872H0v6.316h19.502V8.936H13.272z
		 M1.196,14.33H0.643V12.61h0.553V14.33z M1.196,11.576H0.643v-1.221h0.553V11.576z M2.692,14.33H2.139V12.61h0.553V14.33z
		 M2.692,11.576H2.139v-1.221h0.553V11.576z M4.19,14.33H3.636V12.61H4.19V14.33z M4.19,11.576H3.636v-1.221H4.19V11.576z
		 M5.687,14.33H5.134V12.61h0.552L5.687,14.33L5.687,14.33z M5.687,11.576H5.134v-1.221h0.552L5.687,11.576L5.687,11.576z
		 M9.483,10.354h0.552v1.221H9.483V10.354z M7.86,14.33H7.309V12.61H7.86V14.33z M7.86,11.576H7.309v-1.221H7.86V11.576z
		 M10.127,14.33H9.391v-1.457h0.736V14.33z M12.211,14.33h-0.552V12.61h0.552V14.33z M12.211,11.576h-0.552v-1.221h0.552V11.576z
		 M14.386,14.33h-0.552V12.61h0.552V14.33z M14.386,11.576h-0.552v-1.221h0.552V11.576z M15.883,14.33H15.33V12.61h0.553
		C15.883,12.61,15.883,14.33,15.883,14.33z M15.883,11.576H15.33v-1.221h0.553C15.883,10.354,15.883,11.576,15.883,11.576z
		 M17.379,14.33h-0.552V12.61h0.552V14.33z M17.379,11.576h-0.552v-1.221h0.552V11.576z M18.877,14.33h-0.554V12.61h0.554V14.33z
		 M18.877,11.576h-0.554v-1.221h0.554V11.576z"/>
</g>
<g>
</g>
<g>
</g>
<g>
</g>
<g>
</g>
<g>
</g>
<g>
</g>
<g>
</g>
<g>
</g>
<g>
</g>
<g>
</g>
<g>
</g>
<g>
</g>
<g>
</g>
<g>
</g>
<g>
</g>
</svg>
