<?xml version="1.0" encoding="iso-8859-1"?>
<!-- Generator: Adobe Illustrator 18.0.0, SVG Export Plug-In . SVG Version: 6.00 Build 0)  -->
<!DOCTYPE svg PUBLIC "-//W3C//DTD SVG 1.1//EN" "http://www.w3.org/Graphics/SVG/1.1/DTD/svg11.dtd">
<svg version="1.1" id="Capa_1" xmlns="http://www.w3.org/2000/svg" xmlns:xlink="http://www.w3.org/1999/xlink" x="0px" y="0px"
	 viewBox="0 0 483.96 483.96" style="enable-background:new 0 0 483.96 483.96;" xml:space="preserve">
<path d="M376.917,270.951l-73.138-21.809v0.008l-3.002-0.9c10.619-12.011,19.495-26.141,26.078-40.254
	c13.059-2.558,25.422-14.71,31.208-31.295c3.637-10.424,4.27-21.301,1.799-30.63c-2.173-8.219-6.803-14.553-12.863-18.345
	c0.322-2.148-0.442-5.513-4.262-5.841c-0.32-2.401-0.642-4.801-1.104-7.147l2.292-16.976c6.334-47.004-26.368-90.357-73.333-97.168
	c-18.494-2.682-37.129,3.84-49.905,17.469l-0.838,0.892c-17.554-8.023-38.041-6.123-53.822,5.004
	c-17.712,12.488-27.79,33.179-26.705,54.832l1.88,43.063c-2.24,0-4.818,2.465-4.241,5.873c-6.062,3.792-10.698,10.134-12.871,18.345
	c-2.471,9.329-1.831,20.214,1.805,30.63c5.726,16.428,17.916,28.51,31.178,31.216c6.585,14.138,15.475,28.3,26.11,40.333
	l-3.003,0.892l-8.249,2.463l-64.889,19.346c-13.215,3.941-22.278,16.094-22.278,29.887v25.907
	c0,86.831,70.385,157.215,157.207,157.215h0.008c86.831,0,157.215-70.385,157.215-157.215v-25.907
	C399.195,287.044,390.132,274.892,376.917,270.951z M204.634,54.166c-3.355,42.907,67.765,36.87,67.765,36.87
	c21.849-2.018,36.807,1.329,47.082,6.365c3.918,8.875,6.257,18.642,7.383,28.839c-6.084,3.292-11.026,7.671-14.772,11.785
	c-5.162-11.143-16.382-18.94-29.456-18.94c-12.214,0-22.755,6.85-28.316,16.836c-7.899-2.894-16.782-2.901-24.679,0
	c-5.561-9.986-16.102-16.836-28.316-16.836c-13.075,0-24.296,7.796-29.456,18.94c-3.746-4.121-8.696-8.493-14.78-11.785
	C160.639,94.21,179.015,67.608,204.634,54.166z M266.284,143.428c-0.477-0.477-1.057-0.813-1.565-1.259
	c3.448-6.49,10.064-11.073,17.916-11.073c11.314,0,20.518,9.204,20.518,20.52c0,11.314-9.204,20.518-20.518,20.518
	c-10.651,0-19.144-8.249-20.145-18.643c1.369-0.117,2.745-0.523,3.794-1.571C268.628,149.574,268.628,145.773,266.284,143.428z
	 M217.676,151.92c1.047,1.039,2.425,1.454,3.792,1.571c-1.001,10.394-9.493,18.643-20.143,18.643
	c-11.314,0-20.518-9.204-20.518-20.518c0-11.315,9.204-20.52,20.518-20.52c7.85,0,14.466,4.583,17.915,11.073
	c-0.509,0.446-1.087,0.782-1.564,1.259C215.33,145.773,215.33,149.574,217.676,151.92z M169.843,197.282
	c-1.274-2.924-4.489-4.81-7.671-4.81c-6.702,0-16.391-7.373-21.152-21.042c-2.558-7.329-3.089-15.077-1.446-21.255
	c0.79-2.979,2.806-8.226,7.468-9.845c0.438-0.157,1.204-0.243,1.962-0.321c1.752-0.172,3.276-0.962,4.513-2.072
	c8.304,5.255,13.935,13.434,15.506,15.897c1.166,16.891,15.124,30.31,32.303,30.31c17.938,0,32.531-14.591,32.531-32.529
	c0-1.27-0.143-2.823-0.409-4.247c5.499-2.189,11.698-2.154,17.191,0.072c-0.326,1.283-0.534,3.064-0.534,4.175
	c0,17.939,14.591,32.529,32.531,32.529c17.179,0,31.138-13.419,32.302-30.31c1.572-2.463,7.203-10.642,15.507-15.889
	c1.229,1.103,2.753,1.893,4.505,2.064c0.476,0.047,1.477,0.149,1.978,0.321c4.652,1.619,6.67,6.866,7.46,9.845
	c1.635,6.178,1.11,13.926-1.446,21.255c-4.771,13.669-14.452,21.042-21.326,21.042c-0.006,0-0.006,0-0.006,0
	c-3.458,0.181-6.195,1.839-7.492,4.81c-13.934,31.967-40.202,66.123-72.137,66.123C210.043,263.405,183.778,229.249,169.843,197.282
	z M241.98,313.803c-29.55,0-54.175-20.699-60.423-48.356l14.873-4.435c13.326,11.034,28.605,18.407,45.551,18.407
	s32.225-7.373,45.549-18.407l14.873,4.435C296.147,293.104,271.531,313.803,241.98,313.803z"/>
<g>
</g>
<g>
</g>
<g>
</g>
<g>
</g>
<g>
</g>
<g>
</g>
<g>
</g>
<g>
</g>
<g>
</g>
<g>
</g>
<g>
</g>
<g>
</g>
<g>
</g>
<g>
</g>
<g>
</g>
</svg>
