<?xml version="1.0" encoding="UTF-8"?>
<svg width="30px" height="27px" viewBox="0 0 30 27" version="1.1" xmlns="http://www.w3.org/2000/svg" xmlns:xlink="http://www.w3.org/1999/xlink">
    <!-- Generator: Sketch 56.3 (81716) - https://sketch.com -->
    <title>Path Copy 11</title>
    <desc>Created with Sketch.</desc>
    <g id="Styleguide" stroke="none" stroke-width="1" fill="none" fill-rule="evenodd" stroke-linecap="round" stroke-linejoin="round">
        <g id="PIF-Styles" transform="translate(-547.000000, -4401.000000)" fill="#2672DE" stroke="#2672DE">
            <path d="M576,4402.0143 C574.737689,4402.95539 573.340051,4403.67518 571.860909,4404.14594 C570.234747,4402.1697 567.614215,4401.47667 565.299107,4402.41061 C562.984,4403.34455 561.466782,4405.70678 561.5,4408.32564 L561.5,4409.71887 C556.794967,4409.84782 552.341306,4407.47851 549.636364,4403.40753 C549.636364,4403.40753 544.363636,4415.94662 556.227273,4421.51955 C553.512514,4423.46724 550.278525,4424.44384 547,4424.30601 C558.863636,4431.27217 573.363636,4424.30601 573.363636,4408.28384 C573.362422,4407.89576 573.327119,4407.50864 573.258182,4407.12746 C574.603522,4405.72516 575.552909,4403.95467 576,4402.0143 Z" id="Path-Copy-11"></path>
        </g>
    </g>
</svg>