<?xml version="1.0" encoding="UTF-8"?>
<svg width="29px" height="27px" viewBox="0 0 29 27" version="1.1" xmlns="http://www.w3.org/2000/svg" xmlns:xlink="http://www.w3.org/1999/xlink">
    <!-- Generator: Sketch 56.3 (81716) - https://sketch.com -->
    <title>Combined Shape Copy 11</title>
    <desc>Created with Sketch.</desc>
    <g id="Styleguide" stroke="none" stroke-width="1" fill="none" fill-rule="evenodd" stroke-linecap="round" stroke-linejoin="round">
        <g id="PIF-Styles" transform="translate(-503.000000, -4401.000000)" fill="#2672DE" stroke="#2672DE">
            <path d="M523,4409 C527.418278,4409 531,4412.71948 531,4417.30769 L531,4427 L525.666667,4427 L525.666667,4417.30769 C525.666667,4415.77829 524.472759,4414.53846 523,4414.53846 C521.527241,4414.53846 520.333333,4415.77829 520.333333,4417.30769 L520.333333,4427 L515,4427 L515,4417.30769 C515,4412.71948 518.581722,4409 523,4409 Z M504,4411 L509,4411 L509,4427 L504,4427 L504,4411 Z M506.5,4407 C507.880712,4407 509,4405.88071 509,4404.5 C509,4403.11929 507.880712,4402 506.5,4402 C505.119288,4402 504,4403.11929 504,4404.5 C504,4405.88071 505.119288,4407 506.5,4407 Z" id="Combined-Shape-Copy-11"></path>
        </g>
    </g>
</svg>